<?xml version="1.0" encoding="UTF-8"?>
<!DOCTYPE svg PUBLIC "-//W3C//DTD SVG 1.1//EN" "http://www.w3.org/Graphics/SVG/1.1/DTD/svg11.dtd">
<svg xmlns="http://www.w3.org/2000/svg" version="1.1" width="202px" height="170px" style="shape-rendering:geometricPrecision; text-rendering:geometricPrecision; image-rendering:optimizeQuality; fill-rule:evenodd; clip-rule:evenodd" xmlns:xlink="http://www.w3.org/1999/xlink">
<g><path style="opacity:0.129" fill="#f3edf9" d="M 89.5,7.5 C 111.765,4.47519 132.765,8.64186 152.5,20C 155.42,21.9461 158.087,24.1128 160.5,26.5C 158.216,26.0248 156.216,25.0248 154.5,23.5C 149.054,19.4439 143.054,16.4439 136.5,14.5C 134.11,12.9802 131.443,11.9802 128.5,11.5C 121.749,9.67839 114.749,8.67839 107.5,8.5C 101.69,7.51045 95.69,7.17711 89.5,7.5 Z"/></g>
<g><path style="opacity:0.78" fill="#f0edf4" d="M 87.5,7.5 C 83.2965,8.97215 78.9632,10.3055 74.5,11.5C 70.2419,13.132 65.9086,14.4653 61.5,15.5C 69.5194,11.0513 78.1861,8.38464 87.5,7.5 Z"/></g>
<g><path style="opacity:1" fill="#d5cae4" d="M 107.5,8.5 C 114.749,8.67839 121.749,9.67839 128.5,11.5C 124.563,11.7935 120.73,11.4601 117,10.5C 116.667,11.1667 116.333,11.8333 116,12.5C 113.21,11.3015 110.543,10.6349 108,10.5C 107.833,10.8333 107.667,11.1667 107.5,11.5C 108.665,12.5836 109.998,13.4169 111.5,14C 116.852,14.5206 122.185,15.1872 127.5,16C 124.253,17.9014 121.087,17.7347 118,15.5C 117.798,17.2556 117.298,18.9223 116.5,20.5C 115.522,20.0233 114.689,19.3567 114,18.5C 113.833,18.8333 113.667,19.1667 113.5,19.5C 114.936,20.9337 116.602,22.1004 118.5,23C 117.552,23.4828 116.552,23.6495 115.5,23.5C 112.833,23.5 110.167,23.5 107.5,23.5C 107.343,22.1266 107.51,20.7932 108,19.5C 108.71,20.9733 109.876,21.6399 111.5,21.5C 111.5,20.1667 111.5,18.8333 111.5,17.5C 107.082,18.8972 103.082,18.0638 99.5,15C 101.044,14.7104 102.377,14.0437 103.5,13C 99.9542,11.8263 96.2875,11.1596 92.5,11C 92.0426,10.586 91.7093,10.086 91.5,9.5C 96.7921,8.50515 102.125,8.17182 107.5,8.5 Z"/></g>
<g><path style="opacity:1" fill="#d6d0e1" d="M 87.5,7.5 C 88.1667,7.5 88.8333,7.5 89.5,7.5C 95.69,7.17711 101.69,7.51045 107.5,8.5C 102.125,8.17182 96.7921,8.50515 91.5,9.5C 91.7093,10.086 92.0426,10.586 92.5,11C 96.2875,11.1596 99.9542,11.8263 103.5,13C 102.377,14.0437 101.044,14.7104 99.5,15C 103.082,18.0638 107.082,18.8972 111.5,17.5C 111.5,18.8333 111.5,20.1667 111.5,21.5C 109.876,21.6399 108.71,20.9733 108,19.5C 107.51,20.7932 107.343,22.1266 107.5,23.5C 100.167,23.5 92.8333,23.5 85.5,23.5C 82.1667,22.1667 78.8333,20.8333 75.5,19.5C 76.127,17.3435 75.4604,15.3435 73.5,13.5C 73.8627,12.8165 74.1961,12.1499 74.5,11.5C 78.9632,10.3055 83.2965,8.97215 87.5,7.5 Z"/></g>
<g><path style="opacity:1" fill="#d5c9e7" d="M 128.5,11.5 C 131.443,11.9802 134.11,12.9802 136.5,14.5C 133.753,14.1866 131.086,14.52 128.5,15.5C 130.24,19.0777 132.573,22.2443 135.5,25C 134.571,26.0769 133.904,27.2436 133.5,28.5C 127.24,27.346 121.24,25.6793 115.5,23.5C 116.552,23.6495 117.552,23.4828 118.5,23C 116.602,22.1004 114.936,20.9337 113.5,19.5C 113.667,19.1667 113.833,18.8333 114,18.5C 114.689,19.3567 115.522,20.0233 116.5,20.5C 117.298,18.9223 117.798,17.2556 118,15.5C 121.087,17.7347 124.253,17.9014 127.5,16C 122.185,15.1872 116.852,14.5206 111.5,14C 109.998,13.4169 108.665,12.5836 107.5,11.5C 107.667,11.1667 107.833,10.8333 108,10.5C 110.543,10.6349 113.21,11.3015 116,12.5C 116.333,11.8333 116.667,11.1667 117,10.5C 120.73,11.4601 124.563,11.7935 128.5,11.5 Z"/></g>
<g><path style="opacity:1" fill="#dcd9e0" d="M 74.5,11.5 C 74.1961,12.1499 73.8627,12.8165 73.5,13.5C 75.4604,15.3435 76.127,17.3435 75.5,19.5C 75.6309,20.3764 75.2975,21.0431 74.5,21.5C 71.7835,23.5251 69.2835,23.5251 67,21.5C 65.9887,22.3366 64.8221,22.67 63.5,22.5C 63.3285,24.4918 63.9951,26.1585 65.5,27.5C 64.7573,28.1818 64.0906,28.8485 63.5,29.5C 58.7979,31.8702 54.7979,35.2036 51.5,39.5C 49.7446,40.0722 48.0779,40.9055 46.5,42C 43.4608,45.3145 40.7942,48.8145 38.5,52.5C 38.1667,52.5 37.8333,52.5 37.5,52.5C 37.4892,47.5288 39.3225,43.5288 43,40.5C 43.4828,39.552 43.6495,38.552 43.5,37.5C 46.2496,37.382 48.2496,36.0486 49.5,33.5C 48.9747,32.8076 48.3081,32.3076 47.5,32C 49.5,31.6667 51.5,31.3333 53.5,31C 50.8987,30.0797 48.2321,29.413 45.5,29C 46.8333,28.3333 46.8333,27.6667 45.5,27C 46.5,26.6667 47.5,26.3333 48.5,26C 48.1667,25.6667 47.8333,25.3333 47.5,25C 48.7101,23.9609 49.7101,22.7942 50.5,21.5C 53.678,18.7417 57.3447,16.7417 61.5,15.5C 65.9086,14.4653 70.2419,13.132 74.5,11.5 Z"/></g>
<g><path style="opacity:1" fill="#dad7e4" d="M 75.5,19.5 C 78.8333,20.8333 82.1667,22.1667 85.5,23.5C 82.2204,24.7121 78.8871,25.7121 75.5,26.5C 71.5322,27.4332 67.5322,28.4332 63.5,29.5C 64.0906,28.8485 64.7573,28.1818 65.5,27.5C 63.9951,26.1585 63.3285,24.4918 63.5,22.5C 64.8221,22.67 65.9887,22.3366 67,21.5C 69.2835,23.5251 71.7835,23.5251 74.5,21.5C 75.2975,21.0431 75.6309,20.3764 75.5,19.5 Z"/></g>
<g><path style="opacity:1" fill="#d4c6ea" d="M 136.5,14.5 C 143.054,16.4439 149.054,19.4439 154.5,23.5C 151.519,22.1025 148.352,21.1025 145,20.5C 143.833,20.8333 142.667,21.1667 141.5,21.5C 142.855,22.6753 142.688,23.6753 141,24.5C 140.282,23.5494 139.449,23.3828 138.5,24C 140.516,27.015 142.683,27.1816 145,24.5C 147.336,25.2921 147.836,26.6254 146.5,28.5C 147.729,29.2811 149.062,29.7811 150.5,30C 149.289,30.8928 149.289,31.7261 150.5,32.5C 155.519,34.8231 160.352,38.1564 165,42.5C 168.502,48.1736 171.336,54.1736 173.5,60.5C 172.833,60.1667 172.167,59.8333 171.5,59.5C 171.262,57.5956 170.262,56.2623 168.5,55.5C 166.612,52.1009 164.112,49.1009 161,46.5C 160.517,45.552 160.351,44.552 160.5,43.5C 158.486,43.6085 156.82,42.9418 155.5,41.5C 153.5,39.8333 151.5,38.1667 149.5,36.5C 144.289,33.648 138.956,30.9814 133.5,28.5C 133.904,27.2436 134.571,26.0769 135.5,25C 132.573,22.2443 130.24,19.0777 128.5,15.5C 131.086,14.52 133.753,14.1866 136.5,14.5 Z"/></g>
<g><path style="opacity:1" fill="#c6c0d4" d="M 85.5,23.5 C 92.8333,23.5 100.167,23.5 107.5,23.5C 99.6444,24.2728 91.6444,25.1061 83.5,26C 84.4158,26.2784 85.0825,26.7784 85.5,27.5C 84.8333,27.5 84.1667,27.5 83.5,27.5C 80.7938,27.4249 78.1272,27.0916 75.5,26.5C 78.8871,25.7121 82.2204,24.7121 85.5,23.5 Z"/></g>
<g><path style="opacity:1" fill="#b4abca" d="M 107.5,23.5 C 110.167,23.5 112.833,23.5 115.5,23.5C 121.24,25.6793 127.24,27.346 133.5,28.5C 138.956,30.9814 144.289,33.648 149.5,36.5C 146.237,35.5178 142.903,34.8511 139.5,34.5C 137.316,32.4152 134.649,31.4152 131.5,31.5C 130.833,31.5 130.167,31.5 129.5,31.5C 128.833,31.5 128.167,31.5 127.5,31.5C 127.5,31.1667 127.5,30.8333 127.5,30.5C 124.155,28.783 120.489,28.1164 116.5,28.5C 114.833,28.5 113.167,28.5 111.5,28.5C 105.021,27.5093 98.3543,27.176 91.5,27.5C 89.5,27.5 87.5,27.5 85.5,27.5C 85.0825,26.7784 84.4158,26.2784 83.5,26C 91.6444,25.1061 99.6444,24.2728 107.5,23.5 Z"/></g>
<g><path style="opacity:1" fill="#bab5cc" d="M 75.5,26.5 C 78.1272,27.0916 80.7938,27.4249 83.5,27.5C 77.5345,28.9849 71.5345,30.8182 65.5,33C 64.944,33.3826 64.6107,33.8826 64.5,34.5C 61.2622,35.7375 58.2622,37.4042 55.5,39.5C 54.1667,39.5 52.8333,39.5 51.5,39.5C 54.7979,35.2036 58.7979,31.8702 63.5,29.5C 67.5322,28.4332 71.5322,27.4332 75.5,26.5 Z"/></g>
<g><path style="opacity:1" fill="#1d1738" d="M 91.5,27.5 C 98.3543,27.176 105.021,27.5093 111.5,28.5C 105.394,28.077 101.394,28.4103 99.5,29.5C 98.9889,33.0297 99.6556,36.1963 101.5,39C 96.8958,40.0607 92.2291,40.7273 87.5,41C 86.1667,41.6667 84.8333,42.3333 83.5,43C 85.8929,44.8631 88.5596,46.1965 91.5,47C 90.3012,48.6943 88.9678,50.1943 87.5,51.5C 86.8333,51.5 86.1667,51.5 85.5,51.5C 83.5669,50.3583 82.0669,48.6917 81,46.5C 78.9622,50.418 77.1288,50.2513 75.5,46C 73.5273,45.5045 71.5273,45.3379 69.5,45.5C 69.8399,42.8559 69.1733,40.5225 67.5,38.5C 69.5852,37.4586 71.2519,35.9586 72.5,34C 76.4884,32.717 80.1551,31.217 83.5,29.5C 86.3303,29.0372 88.997,28.3705 91.5,27.5 Z"/></g>
<g><path style="opacity:1" fill="#1c153c" d="M 111.5,28.5 C 113.167,28.5 114.833,28.5 116.5,28.5C 119.974,29.5249 123.64,30.1916 127.5,30.5C 127.5,30.8333 127.5,31.1667 127.5,31.5C 121.365,30.9389 115.698,30.9389 110.5,31.5C 109.888,34.8806 111.054,37.2139 114,38.5C 114.945,38.0946 115.612,37.428 116,36.5C 116.541,39.209 118.041,41.209 120.5,42.5C 123.282,40.2434 126.282,39.5767 129.5,40.5C 126.662,42.6328 123.495,43.9662 120,44.5C 118.491,42.0807 116.325,41.0807 113.5,41.5C 113.657,42.8734 113.49,44.2068 113,45.5C 112.326,44.4216 111.326,43.7549 110,43.5C 106.961,44.8208 103.794,45.6541 100.5,46C 99.7178,48.7405 99.2178,51.5738 99,54.5C 97.0074,51.5661 94.5074,50.5661 91.5,51.5C 90.1667,51.5 88.8333,51.5 87.5,51.5C 88.9678,50.1943 90.3012,48.6943 91.5,47C 88.5596,46.1965 85.8929,44.8631 83.5,43C 84.8333,42.3333 86.1667,41.6667 87.5,41C 92.2291,40.7273 96.8958,40.0607 101.5,39C 99.6556,36.1963 98.9889,33.0297 99.5,29.5C 101.394,28.4103 105.394,28.077 111.5,28.5 Z"/></g>
<g><path style="opacity:1" fill="#776d90" d="M 116.5,28.5 C 120.489,28.1164 124.155,28.783 127.5,30.5C 123.64,30.1916 119.974,29.5249 116.5,28.5 Z"/></g>
<g><path style="opacity:0.141" fill="#efe7f8" d="M 160.5,26.5 C 164.482,29.1518 168.149,32.1518 171.5,35.5C 167.806,33.455 164.14,31.455 160.5,29.5C 160.5,28.5 160.5,27.5 160.5,26.5 Z"/></g>
<g><path style="opacity:1" fill="#615b77" d="M 83.5,27.5 C 84.1667,27.5 84.8333,27.5 85.5,27.5C 87.5,27.5 89.5,27.5 91.5,27.5C 88.997,28.3705 86.3303,29.0372 83.5,29.5C 77.0045,30.5541 70.6711,32.2208 64.5,34.5C 64.6107,33.8826 64.944,33.3826 65.5,33C 71.5345,30.8182 77.5345,28.9849 83.5,27.5 Z"/></g>
<g><path style="opacity:1" fill="#8378a2" d="M 131.5,31.5 C 134.649,31.4152 137.316,32.4152 139.5,34.5C 136.351,34.5848 133.684,33.5848 131.5,31.5 Z"/></g>
<g><path style="opacity:1" fill="#9f93bb" d="M 139.5,34.5 C 142.903,34.8511 146.237,35.5178 149.5,36.5C 151.5,38.1667 153.5,39.8333 155.5,41.5C 153.435,41.4828 151.435,41.1495 149.5,40.5C 146.159,38.4967 142.825,36.4967 139.5,34.5 Z"/></g>
<g><path style="opacity:1" fill="#e3e0e5" d="M 50.5,21.5 C 49.7101,22.7942 48.7101,23.9609 47.5,25C 47.8333,25.3333 48.1667,25.6667 48.5,26C 47.5,26.3333 46.5,26.6667 45.5,27C 46.8333,27.6667 46.8333,28.3333 45.5,29C 48.2321,29.413 50.8987,30.0797 53.5,31C 51.5,31.3333 49.5,31.6667 47.5,32C 48.3081,32.3076 48.9747,32.8076 49.5,33.5C 48.2496,36.0486 46.2496,37.382 43.5,37.5C 43.6495,38.552 43.4828,39.552 43,40.5C 39.3225,43.5288 37.4892,47.5288 37.5,52.5C 35.9348,54.5093 34.9348,56.8427 34.5,59.5C 32.9291,61.6351 31.5957,63.9684 30.5,66.5C 30.1667,66.5 29.8333,66.5 29.5,66.5C 29.5789,64.3337 30.2455,62.3337 31.5,60.5C 31.0603,58.2351 30.3936,56.0684 29.5,54C 30.5,53.6667 31.5,53.3333 32.5,53C 28.6735,50.5534 28.0068,47.5534 30.5,44C 30.2645,43.1268 29.9312,42.2935 29.5,41.5C 30.9524,40.0603 31.9524,38.3936 32.5,36.5C 37.3266,29.9993 43.3266,24.9993 50.5,21.5 Z"/></g>
<g><path style="opacity:1" fill="#1e1349" d="M 132.5,35.5 C 134.527,35.3379 136.527,35.5045 138.5,36C 140.827,40.3656 144.494,42.199 149.5,41.5C 154.847,45.1831 159.514,49.5164 163.5,54.5C 163.5,54.8333 163.5,55.1667 163.5,55.5C 161.453,53.9255 159.119,52.9255 156.5,52.5C 154.517,50.7506 152.35,49.0839 150,47.5C 149.15,48.4239 148.15,48.4239 147,47.5C 141.309,49.0262 135.476,50.0262 129.5,50.5C 127.535,52.3539 125.535,54.0205 123.5,55.5C 122.153,54.8288 120.986,54.8288 120,55.5C 119.833,54.6667 119.667,53.8333 119.5,53C 120.476,50.8819 121.31,48.7152 122,46.5C 125.79,45.8637 129.623,45.197 133.5,44.5C 134.167,43.8333 134.833,43.1667 135.5,42.5C 133.747,40.4902 132.747,38.1569 132.5,35.5 Z"/></g>
<g><path style="opacity:1" fill="#3e3655" d="M 64.5,34.5 C 62.6323,38.0092 59.6323,40.0092 55.5,40.5C 55.5,40.1667 55.5,39.8333 55.5,39.5C 58.2622,37.4042 61.2622,35.7375 64.5,34.5 Z"/></g>
<g><path style="opacity:1" fill="#2a1f4f" d="M 129.5,31.5 C 130.167,31.5 130.833,31.5 131.5,31.5C 133.684,33.5848 136.351,34.5848 139.5,34.5C 142.825,36.4967 146.159,38.4967 149.5,40.5C 149.5,40.8333 149.5,41.1667 149.5,41.5C 144.494,42.199 140.827,40.3656 138.5,36C 136.527,35.5045 134.527,35.3379 132.5,35.5C 131.789,33.9699 130.789,32.6366 129.5,31.5 Z"/></g>
<g><path style="opacity:1" fill="#e5d8f0" d="M 171.5,35.5 C 175.984,40.467 179.984,45.8003 183.5,51.5C 179.892,47.7278 176.058,44.0612 172,40.5C 171.506,38.8659 171.34,37.1992 171.5,35.5 Z"/></g>
<g><path style="opacity:1" fill="#1c1440" d="M 127.5,31.5 C 128.167,31.5 128.833,31.5 129.5,31.5C 130.789,32.6366 131.789,33.9699 132.5,35.5C 132.747,38.1569 133.747,40.4902 135.5,42.5C 134.833,43.1667 134.167,43.8333 133.5,44.5C 129.623,45.197 125.79,45.8637 122,46.5C 121.31,48.7152 120.476,50.8819 119.5,53C 119.667,53.8333 119.833,54.6667 120,55.5C 120.986,54.8288 122.153,54.8288 123.5,55.5C 121.671,56.7743 121.338,58.2743 122.5,60C 120.554,62.5023 119.387,65.3357 119,68.5C 117.736,70.607 115.903,71.607 113.5,71.5C 113.158,70.6618 112.492,70.3284 111.5,70.5C 111.917,67.9208 111.25,65.7542 109.5,64C 110.308,63.6924 110.975,63.1924 111.5,62.5C 108.914,61.52 106.247,61.1866 103.5,61.5C 103.579,60.0695 103.246,58.7362 102.5,57.5C 99.0033,55.1678 95.3366,53.1678 91.5,51.5C 94.5074,50.5661 97.0074,51.5661 99,54.5C 99.2178,51.5738 99.7178,48.7405 100.5,46C 103.794,45.6541 106.961,44.8208 110,43.5C 111.326,43.7549 112.326,44.4216 113,45.5C 113.49,44.2068 113.657,42.8734 113.5,41.5C 116.325,41.0807 118.491,42.0807 120,44.5C 123.495,43.9662 126.662,42.6328 129.5,40.5C 126.282,39.5767 123.282,40.2434 120.5,42.5C 118.041,41.209 116.541,39.209 116,36.5C 115.612,37.428 114.945,38.0946 114,38.5C 111.054,37.2139 109.888,34.8806 110.5,31.5C 115.698,30.9389 121.365,30.9389 127.5,31.5 Z"/></g>
<g><path style="opacity:1" fill="#211b3a" d="M 83.5,29.5 C 80.1551,31.217 76.4884,32.717 72.5,34C 71.2519,35.9586 69.5852,37.4586 67.5,38.5C 69.1733,40.5225 69.8399,42.8559 69.5,45.5C 71.5273,45.3379 73.5273,45.5045 75.5,46C 77.1288,50.2513 78.9622,50.418 81,46.5C 82.0669,48.6917 83.5669,50.3583 85.5,51.5C 84.9181,52.9311 84.0848,54.2644 83,55.5C 82.6667,54.8333 82.3333,54.1667 82,53.5C 80.8061,54.4303 79.4728,55.0969 78,55.5C 75.6124,54.4374 73.4458,53.1041 71.5,51.5C 69.604,50.5344 67.604,50.2011 65.5,50.5C 65.5,51.5 65.5,52.5 65.5,53.5C 62.5018,54.159 59.6684,54.4924 57,54.5C 54.9423,53.8883 53.109,52.8883 51.5,51.5C 52.2511,48.0655 53.2511,44.7321 54.5,41.5C 54.5,40.8333 54.8333,40.5 55.5,40.5C 59.6323,40.0092 62.6323,38.0092 64.5,34.5C 70.6711,32.2208 77.0045,30.5541 83.5,29.5 Z"/></g>
<g><path style="opacity:1" fill="#938ea3" d="M 51.5,39.5 C 52.8333,39.5 54.1667,39.5 55.5,39.5C 55.5,39.8333 55.5,40.1667 55.5,40.5C 54.8333,40.5 54.5,40.8333 54.5,41.5C 52.5956,41.7376 51.2623,42.7376 50.5,44.5C 47.9387,46.6397 45.6054,48.973 43.5,51.5C 42.5041,51.5858 41.6708,51.2524 41,50.5C 40.2917,51.3805 39.4584,52.0472 38.5,52.5C 40.7942,48.8145 43.4608,45.3145 46.5,42C 48.0779,40.9055 49.7446,40.0722 51.5,39.5 Z"/></g>
<g><path style="opacity:1" fill="#211a41" d="M 85.5,51.5 C 86.1667,51.5 86.8333,51.5 87.5,51.5C 88.8333,51.5 90.1667,51.5 91.5,51.5C 95.3366,53.1678 99.0033,55.1678 102.5,57.5C 103.246,58.7362 103.579,60.0695 103.5,61.5C 106.247,61.1866 108.914,61.52 111.5,62.5C 110.975,63.1924 110.308,63.6924 109.5,64C 111.25,65.7542 111.917,67.9208 111.5,70.5C 111.5,70.8333 111.5,71.1667 111.5,71.5C 107.62,75.041 103.786,78.7076 100,82.5C 99.5065,84.1341 99.3398,85.8008 99.5,87.5C 97.857,87.5198 96.5237,86.8532 95.5,85.5C 95.1667,86 94.8333,86.5 94.5,87C 93.6743,91.2934 93.3409,95.46 93.5,99.5C 91.0945,98.2322 89.0945,98.2322 87.5,99.5C 88.1743,97.4835 89.3409,95.8168 91,94.5C 92.9436,84.478 92.777,74.478 90.5,64.5C 89.914,64.7093 89.414,65.0426 89,65.5C 87.2458,63.75 85.0792,63.0833 82.5,63.5C 82.5,62.1667 82.5,60.8333 82.5,59.5C 80.1667,59.5 77.8333,59.5 75.5,59.5C 74.1516,58.3994 72.6516,57.3994 71,56.5C 70.5172,55.552 70.3505,54.552 70.5,53.5C 68.8333,53.5 67.1667,53.5 65.5,53.5C 65.5,52.5 65.5,51.5 65.5,50.5C 67.604,50.2011 69.604,50.5344 71.5,51.5C 73.4458,53.1041 75.6124,54.4374 78,55.5C 79.4728,55.0969 80.8061,54.4303 82,53.5C 82.3333,54.1667 82.6667,54.8333 83,55.5C 84.0848,54.2644 84.9181,52.9311 85.5,51.5 Z"/></g>
<g><path style="opacity:1" fill="#2b2346" d="M 54.5,41.5 C 53.2511,44.7321 52.2511,48.0655 51.5,51.5C 53.109,52.8883 54.9423,53.8883 57,54.5C 59.6684,54.4924 62.5018,54.159 65.5,53.5C 67.1667,53.5 68.8333,53.5 70.5,53.5C 70.3505,54.552 70.5172,55.552 71,56.5C 72.6516,57.3994 74.1516,58.3994 75.5,59.5C 75.5,59.8333 75.5,60.1667 75.5,60.5C 71.5369,59.56 67.5369,59.3933 63.5,60C 64.5,60.3333 65.5,60.6667 66.5,61C 64.1902,61.4966 61.8568,61.6633 59.5,61.5C 57.5,61.5 55.5,61.5 53.5,61.5C 53.6399,63.1238 52.9733,64.2904 51.5,65C 48.8333,65.3333 46.1667,65.6667 43.5,66C 42.3568,71.3386 39.0234,75.1719 33.5,77.5C 33.5,76.1667 33.5,74.8333 33.5,73.5C 36.1939,67.9624 39.5272,62.7957 43.5,58C 42.2558,55.0118 43.2558,52.8452 46.5,51.5C 47.8796,49.1382 49.2129,46.8048 50.5,44.5C 51.2623,42.7376 52.5956,41.7376 54.5,41.5 Z"/></g>
<g><path style="opacity:1" fill="#7f749e" d="M 149.5,41.5 C 149.5,41.1667 149.5,40.8333 149.5,40.5C 151.435,41.1495 153.435,41.4828 155.5,41.5C 156.82,42.9418 158.486,43.6085 160.5,43.5C 160.351,44.552 160.517,45.552 161,46.5C 164.112,49.1009 166.612,52.1009 168.5,55.5C 166.784,55.3713 165.117,55.038 163.5,54.5C 159.514,49.5164 154.847,45.1831 149.5,41.5 Z"/></g>
<g><path style="opacity:1" fill="#20154d" d="M 156.5,52.5 C 150.809,51.4212 145.309,52.0879 140,54.5C 133.326,53.0152 128.993,55.6818 127,62.5C 121.017,66.8666 118.017,72.8666 118,80.5C 112.979,84.0041 112.479,87.8375 116.5,92C 115.294,94.0174 115.627,95.8507 117.5,97.5C 117.297,99.2077 116.464,100.541 115,101.5C 112.711,100.978 110.544,101.645 108.5,103.5C 106.883,102.358 105.05,101.691 103,101.5C 99.1827,102.069 95.3494,102.403 91.5,102.5C 91.5,102.167 91.5,101.833 91.5,101.5C 93.7224,101.822 95.5557,101.155 97,99.5C 99.9546,99.6782 103.121,99.6782 106.5,99.5C 109.952,100.09 113.285,99.257 116.5,97C 115.584,96.6258 114.75,96.1258 114,95.5C 112.893,92.1208 111.393,88.9541 109.5,86C 110.619,82.2588 112.619,79.0921 115.5,76.5C 113.995,75.1585 113.328,73.4918 113.5,71.5C 115.903,71.607 117.736,70.607 119,68.5C 119.387,65.3357 120.554,62.5023 122.5,60C 121.338,58.2743 121.671,56.7743 123.5,55.5C 125.535,54.0205 127.535,52.3539 129.5,50.5C 135.476,50.0262 141.309,49.0262 147,47.5C 148.15,48.4239 149.15,48.4239 150,47.5C 152.35,49.0839 154.517,50.7506 156.5,52.5 Z"/></g>
<g><path style="opacity:1" fill="#25175c" d="M 165.5,61.5 C 165.747,65.3191 167.08,68.6524 169.5,71.5C 169.565,71.9382 169.399,72.2716 169,72.5C 167.961,71.2899 166.794,70.2899 165.5,69.5C 164.335,66.8529 163.168,64.1862 162,61.5C 156.599,61.6329 151.266,61.6329 146,61.5C 138.789,62.1816 133.289,65.515 129.5,71.5C 127.492,73.2676 125.326,74.9343 123,76.5C 122.243,78.3146 121.41,79.9812 120.5,81.5C 119.457,75.1245 121.457,69.9578 126.5,66C 130.304,63.6955 133.97,61.1955 137.5,58.5C 145.365,55.385 153.365,54.885 161.5,57C 162.733,58.6667 164.067,60.1667 165.5,61.5 Z"/></g>
<g><path style="opacity:0.996" fill="#e6def2" d="M 183.5,51.5 C 185.25,52.6594 186.25,54.326 186.5,56.5C 183.916,55.9517 182.916,54.285 183.5,51.5 Z"/></g>
<g><path style="opacity:1" fill="#dac7f3" d="M 154.5,23.5 C 156.216,25.0248 158.216,26.0248 160.5,26.5C 160.5,27.5 160.5,28.5 160.5,29.5C 164.14,31.455 167.806,33.455 171.5,35.5C 171.34,37.1992 171.506,38.8659 172,40.5C 176.058,44.0612 179.892,47.7278 183.5,51.5C 182.916,54.285 183.916,55.9517 186.5,56.5C 187.201,59.9829 188.201,63.3162 189.5,66.5C 188.175,65.0474 187.342,65.3808 187,67.5C 185.286,66.0745 183.953,66.4078 183,68.5C 182.5,68 182,67.5 181.5,67C 182.517,65.9505 182.684,64.7839 182,63.5C 181.586,63.9574 181.086,64.2907 180.5,64.5C 178.56,62.9546 177.394,60.9546 177,58.5C 175.513,60.272 175.18,62.272 176,64.5C 176.893,63.2888 177.726,63.2888 178.5,64.5C 180.381,69.0982 180.715,73.7648 179.5,78.5C 179.167,78.5 178.833,78.5 178.5,78.5C 178.41,74.7858 177.41,71.4525 175.5,68.5C 175.443,67.391 175.11,66.391 174.5,65.5C 173.962,63.8828 173.629,62.2161 173.5,60.5C 171.336,54.1736 168.502,48.1736 165,42.5C 160.352,38.1564 155.519,34.8231 150.5,32.5C 149.289,31.7261 149.289,30.8928 150.5,30C 149.062,29.7811 147.729,29.2811 146.5,28.5C 147.836,26.6254 147.336,25.2921 145,24.5C 142.683,27.1816 140.516,27.015 138.5,24C 139.449,23.3828 140.282,23.5494 141,24.5C 142.688,23.6753 142.855,22.6753 141.5,21.5C 142.667,21.1667 143.833,20.8333 145,20.5C 148.352,21.1025 151.519,22.1025 154.5,23.5 Z"/></g>
<g><path style="opacity:1" fill="#a29fa9" d="M 37.5,52.5 C 37.8333,52.5 38.1667,52.5 38.5,52.5C 37.528,55.1316 36.1947,57.4649 34.5,59.5C 34.9348,56.8427 35.9348,54.5093 37.5,52.5 Z"/></g>
<g><path style="opacity:1" fill="#261d47" d="M 75.5,59.5 C 77.8333,59.5 80.1667,59.5 82.5,59.5C 82.5,60.8333 82.5,62.1667 82.5,63.5C 85.0792,63.0833 87.2458,63.75 89,65.5C 89.414,65.0426 89.914,64.7093 90.5,64.5C 92.777,74.478 92.9436,84.478 91,94.5C 89.3409,95.8168 88.1743,97.4835 87.5,99.5C 89.0945,98.2322 91.0945,98.2322 93.5,99.5C 92.8333,100.167 92.1667,100.833 91.5,101.5C 88.8078,102.009 86.3078,103.009 84,104.5C 83.4593,99.0131 85.6259,94.8464 90.5,92C 90.0426,91.586 89.7093,91.086 89.5,90.5C 90.2386,86.5269 90.9052,82.5269 91.5,78.5C 91.363,76.8927 90.6964,75.5594 89.5,74.5C 87.1987,73.6751 84.8654,73.0084 82.5,72.5C 83.2793,70.5801 83.6126,68.7468 83.5,67C 80.9466,64.5748 78.2799,62.4081 75.5,60.5C 75.5,60.1667 75.5,59.8333 75.5,59.5 Z"/></g>
<g><path style="opacity:1" fill="#2d2350" d="M 75.5,60.5 C 78.2799,62.4081 80.9466,64.5748 83.5,67C 83.6126,68.7468 83.2793,70.5801 82.5,72.5C 81.5207,71.2347 80.5207,69.9014 79.5,68.5C 78.3112,67.5713 76.9778,67.238 75.5,67.5C 72.4456,65.3061 69.1122,63.6395 65.5,62.5C 63.2646,62.7947 61.2646,62.4614 59.5,61.5C 61.8568,61.6633 64.1902,61.4966 66.5,61C 65.5,60.6667 64.5,60.3333 63.5,60C 67.5369,59.3933 71.5369,59.56 75.5,60.5 Z"/></g>
<g><path style="opacity:1" fill="#675d8c" d="M 163.5,55.5 C 163.5,55.1667 163.5,54.8333 163.5,54.5C 165.117,55.038 166.784,55.3713 168.5,55.5C 169.167,59.1667 169.833,62.8333 170.5,66.5C 168.859,63.7236 167.359,60.7236 166,57.5C 165.292,56.6195 164.458,55.9528 163.5,55.5 Z"/></g>
<g><path style="opacity:1" fill="#3a344f" d="M 50.5,44.5 C 49.2129,46.8048 47.8796,49.1382 46.5,51.5C 43.2558,52.8452 42.2558,55.0118 43.5,58C 39.5272,62.7957 36.1939,67.9624 33.5,73.5C 35.7417,65.6824 39.075,58.349 43.5,51.5C 45.6054,48.973 47.9387,46.6397 50.5,44.5 Z"/></g>
<g><path style="opacity:1" fill="#2b1a66" d="M 165.5,69.5 C 163.731,68.5786 162.065,67.4119 160.5,66C 154.277,63.9799 148.111,63.1466 142,63.5C 137.394,65.6308 133.227,68.2975 129.5,71.5C 133.289,65.515 138.789,62.1816 146,61.5C 151.266,61.6329 156.599,61.6329 162,61.5C 163.168,64.1862 164.335,66.8529 165.5,69.5 Z"/></g>
<g><path style="opacity:1" fill="#9e92b8" d="M 171.5,59.5 C 172.167,59.8333 172.833,60.1667 173.5,60.5C 173.629,62.2161 173.962,63.8828 174.5,65.5C 172.755,63.9674 171.755,61.9674 171.5,59.5 Z"/></g>
<g><path style="opacity:0.957" fill="#eae1f1" d="M 186.5,56.5 C 189.535,59.9024 191.535,63.9024 192.5,68.5C 191.5,67.8333 190.5,67.1667 189.5,66.5C 188.201,63.3162 187.201,59.9829 186.5,56.5 Z"/></g>
<g><path style="opacity:1" fill="#392d58" d="M 59.5,61.5 C 61.2646,62.4614 63.2646,62.7947 65.5,62.5C 64.0193,64.2469 62.0193,65.4136 59.5,66C 55.3,66.8761 51.1333,67.7095 47,68.5C 46.6667,68.1667 46.3333,67.8333 46,67.5C 44.4294,70.0729 42.596,72.4062 40.5,74.5C 39.3402,78.8054 38.3402,83.1387 37.5,87.5C 33.6727,90.1536 31.6727,93.8202 31.5,98.5C 32.4274,91.5279 33.0941,84.5279 33.5,77.5C 39.0234,75.1719 42.3568,71.3386 43.5,66C 46.1667,65.6667 48.8333,65.3333 51.5,65C 52.9733,64.2904 53.6399,63.1238 53.5,61.5C 55.5,61.5 57.5,61.5 59.5,61.5 Z"/></g>
<g><path style="opacity:1" fill="#dec9f8" d="M 189.5,66.5 C 190.5,67.1667 191.5,67.8333 192.5,68.5C 193.95,79.8341 195.284,91.1674 196.5,102.5C 195.884,110.239 194.884,117.905 193.5,125.5C 193.167,125.5 192.833,125.5 192.5,125.5C 193.021,120.16 193.021,115.16 192.5,110.5C 191.702,112.078 191.202,113.744 191,115.5C 189.374,115.146 187.541,115.146 185.5,115.5C 185.657,114.127 185.49,112.793 185,111.5C 184.333,112.833 183.667,112.833 183,111.5C 182.829,103.323 182.329,95.3228 181.5,87.5C 181.672,86.5084 181.338,85.8417 180.5,85.5C 180.326,83.139 179.993,80.8056 179.5,78.5C 180.715,73.7648 180.381,69.0982 178.5,64.5C 177.726,63.2888 176.893,63.2888 176,64.5C 175.18,62.272 175.513,60.272 177,58.5C 177.394,60.9546 178.56,62.9546 180.5,64.5C 181.086,64.2907 181.586,63.9574 182,63.5C 182.684,64.7839 182.517,65.9505 181.5,67C 182,67.5 182.5,68 183,68.5C 183.953,66.4078 185.286,66.0745 187,67.5C 187.342,65.3808 188.175,65.0474 189.5,66.5 Z"/></g>
<g><path style="opacity:1" fill="#8b8895" d="M 43.5,51.5 C 39.075,58.349 35.7417,65.6824 33.5,73.5C 33.1667,73.5 32.8333,73.5 32.5,73.5C 32.2792,70.9028 31.7792,70.9028 31,73.5C 26.6488,87.1802 26.4822,100.847 30.5,114.5C 31.3569,115.425 32.3569,116.092 33.5,116.5C 34.6005,117.605 35.2671,118.938 35.5,120.5C 33.9081,119.398 33.0748,120.065 33,122.5C 31.4059,120.474 29.9059,118.474 28.5,116.5C 28.0679,115.29 27.4013,114.29 26.5,113.5C 24.8747,104.248 24.208,94.9152 24.5,85.5C 25.743,82.3233 26.743,78.9899 27.5,75.5C 29.3104,72.855 30.3104,69.855 30.5,66.5C 31.5957,63.9684 32.9291,61.6351 34.5,59.5C 36.1947,57.4649 37.528,55.1316 38.5,52.5C 39.4584,52.0472 40.2917,51.3805 41,50.5C 41.6708,51.2524 42.5041,51.5858 43.5,51.5 Z"/></g>
<g><path style="opacity:1" fill="#3d2f60" d="M 65.5,62.5 C 69.1122,63.6395 72.4456,65.3061 75.5,67.5C 75.2648,68.0967 74.7648,68.4301 74,68.5C 69.6958,64.9064 65.1958,64.5731 60.5,67.5C 60.5,68.1667 60.1667,68.5 59.5,68.5C 55.0341,68.1562 51.0341,69.3229 47.5,72C 45.9036,75.0483 43.7369,77.5483 41,79.5C 40.023,81.74 39.523,84.0733 39.5,86.5C 38.8333,86.8333 38.1667,87.1667 37.5,87.5C 38.3402,83.1387 39.3402,78.8054 40.5,74.5C 42.596,72.4062 44.4294,70.0729 46,67.5C 46.3333,67.8333 46.6667,68.1667 47,68.5C 51.1333,67.7095 55.3,66.8761 59.5,66C 62.0193,65.4136 64.0193,64.2469 65.5,62.5 Z"/></g>
<g><path style="opacity:1" fill="#4b387c" d="M 60.5,67.5 C 66.1508,66.9545 71.1508,68.2878 75.5,71.5C 73.8333,71.5 72.1667,71.5 70.5,71.5C 69.6829,69.5221 68.1829,68.5221 66,68.5C 62.3587,69.7486 58.8587,71.082 55.5,72.5C 53.5956,72.7376 52.2623,73.7376 51.5,75.5C 50.5084,75.6716 49.8417,75.3382 49.5,74.5C 49.4142,73.5041 49.7476,72.6708 50.5,72C 53.802,71.3392 56.802,70.1725 59.5,68.5C 60.1667,68.5 60.5,68.1667 60.5,67.5 Z"/></g>
<g><path style="opacity:1" fill="#513a8d" d="M 70.5,71.5 C 71.1667,72.1667 71.8333,72.8333 72.5,73.5C 71.8333,73.5 71.1667,73.5 70.5,73.5C 64.5435,71.862 58.8769,72.5287 53.5,75.5C 54.1667,74.5 54.8333,73.5 55.5,72.5C 58.8587,71.082 62.3587,69.7486 66,68.5C 68.1829,68.5221 69.6829,69.5221 70.5,71.5 Z"/></g>
<g><path style="opacity:1" fill="#abaab1" d="M 29.5,66.5 C 29.8333,66.5 30.1667,66.5 30.5,66.5C 30.3104,69.855 29.3104,72.855 27.5,75.5C 27.7556,72.4021 28.4222,69.4021 29.5,66.5 Z"/></g>
<g><path style="opacity:1" fill="#9285aa" d="M 175.5,68.5 C 177.41,71.4525 178.41,74.7858 178.5,78.5C 176.723,75.4954 175.723,72.1621 175.5,68.5 Z"/></g>
<g><path style="opacity:1" fill="#382668" d="M 75.5,71.5 C 81.9044,73.2694 84.9044,77.6027 84.5,84.5C 83.6787,88.1275 82.3454,91.4609 80.5,94.5C 81.0112,91.3073 81.6778,88.1406 82.5,85C 82.2597,82.9843 81.9263,80.9843 81.5,79C 79.7088,76.3709 77.7088,73.8709 75.5,71.5 Z"/></g>
<g><path style="opacity:1" fill="#291c4e" d="M 82.5,72.5 C 84.8654,73.0084 87.1987,73.6751 89.5,74.5C 90.6964,75.5594 91.363,76.8927 91.5,78.5C 90.9052,82.5269 90.2386,86.5269 89.5,90.5C 89.7093,91.086 90.0426,91.586 90.5,92C 85.6259,94.8464 83.4593,99.0131 84,104.5C 86.3078,103.009 88.8078,102.009 91.5,101.5C 91.5,101.833 91.5,102.167 91.5,102.5C 90.8333,102.5 90.5,102.833 90.5,103.5C 89.3065,103.97 88.6399,104.97 88.5,106.5C 89.6495,109.423 90.6495,112.423 91.5,115.5C 91.5,116.5 91.5,117.5 91.5,118.5C 89.1773,115.198 86.844,111.865 84.5,108.5C 83.6216,105.15 82.1216,104.817 80,107.5C 77.7116,107.263 75.2116,107.263 72.5,107.5C 74.3885,106.678 76.3885,105.845 78.5,105C 79.2266,103.601 79.7266,102.101 80,100.5C 82.3579,98.9757 84.1912,96.9757 85.5,94.5C 84.8695,91.6845 85.5362,89.0178 87.5,86.5C 86.2889,85.2798 86.2889,84.1131 87.5,83C 85.9551,80.9149 85.6218,78.7482 86.5,76.5C 84.812,75.4787 83.4787,74.1454 82.5,72.5 Z"/></g>
<g><path style="opacity:1" fill="#6b4aa7" d="M 70.5,73.5 C 71.1667,74.5 71.8333,75.5 72.5,76.5C 72.1667,76.5 71.8333,76.5 71.5,76.5C 70.8333,76.1667 70.1667,75.8333 69.5,75.5C 64.0545,74.1804 58.7211,74.8471 53.5,77.5C 53.5,76.8333 53.5,76.1667 53.5,75.5C 58.8769,72.5287 64.5435,71.862 70.5,73.5 Z"/></g>
<g><path style="opacity:1" fill="#8e66b8" d="M 71.5,77.5 C 71.5,77.1667 71.5,76.8333 71.5,76.5C 71.8333,76.5 72.1667,76.5 72.5,76.5C 74.2624,77.2623 75.2624,78.5956 75.5,80.5C 74.1667,79.5 72.8333,78.5 71.5,77.5 Z"/></g>
<g><path style="opacity:1" fill="#5b3b94" d="M 70.5,73.5 C 71.1667,73.5 71.8333,73.5 72.5,73.5C 76.7611,75.099 79.0944,78.099 79.5,82.5C 79.2174,86.196 78.7174,89.8626 78,93.5C 77.3292,94.2524 76.4959,94.5858 75.5,94.5C 77.3496,90.3546 77.8496,86.0213 77,81.5C 76.6174,80.944 76.1174,80.6107 75.5,80.5C 75.2624,78.5956 74.2624,77.2623 72.5,76.5C 71.8333,75.5 71.1667,74.5 70.5,73.5 Z"/></g>
<g><path style="opacity:1" fill="#1d1641" d="M 111.5,71.5 C 110.627,76.4264 109.294,81.2597 107.5,86C 108.724,89.1596 110.057,92.3263 111.5,95.5C 110.346,97.5648 108.68,98.8981 106.5,99.5C 103.121,99.6782 99.9546,99.6782 97,99.5C 95.5557,101.155 93.7224,101.822 91.5,101.5C 92.1667,100.833 92.8333,100.167 93.5,99.5C 93.3409,95.46 93.6743,91.2934 94.5,87C 94.8333,86.5 95.1667,86 95.5,85.5C 96.5237,86.8532 97.857,87.5198 99.5,87.5C 99.3398,85.8008 99.5065,84.1341 100,82.5C 103.786,78.7076 107.62,75.041 111.5,71.5 Z"/></g>
<g><path style="opacity:1" fill="#eeebf0" d="M 32.5,36.5 C 31.9524,38.3936 30.9524,40.0603 29.5,41.5C 29.9312,42.2935 30.2645,43.1268 30.5,44C 28.0068,47.5534 28.6735,50.5534 32.5,53C 31.5,53.3333 30.5,53.6667 29.5,54C 30.3936,56.0684 31.0603,58.2351 31.5,60.5C 30.2455,62.3337 29.5789,64.3337 29.5,66.5C 28.4222,69.4021 27.7556,72.4021 27.5,75.5C 26.743,78.9899 25.743,82.3233 24.5,85.5C 23.8333,87.1667 23.1667,88.8333 22.5,90.5C 22.1667,87.5 20.5,85.8333 17.5,85.5C 17.6495,86.552 17.4828,87.552 17,88.5C 16.3333,89.8333 15.6667,89.8333 15,88.5C 14.2607,90.2205 13.4274,91.8872 12.5,93.5C 11.6919,93.1924 11.0253,92.6924 10.5,92C 12.9328,88.1314 12.9328,84.2981 10.5,80.5C 8.76356,87.385 7.5969,94.385 7,101.5C 6.50115,97.5138 6.33449,93.5138 6.5,89.5C 8.52425,68.4531 17.1909,50.7865 32.5,36.5 Z"/></g>
<g><path style="opacity:1" fill="#4a3a71" d="M 59.5,68.5 C 56.802,70.1725 53.802,71.3392 50.5,72C 49.7476,72.6708 49.4142,73.5041 49.5,74.5C 45.149,78.8205 42.4824,84.1538 41.5,90.5C 40.8826,90.6107 40.3826,90.944 40,91.5C 39.5065,89.8659 39.3398,88.1992 39.5,86.5C 39.523,84.0733 40.023,81.74 41,79.5C 43.7369,77.5483 45.9036,75.0483 47.5,72C 51.0341,69.3229 55.0341,68.1562 59.5,68.5 Z"/></g>
<g><path style="opacity:1" fill="#bc92e4" d="M 69.5,75.5 C 70.1667,75.8333 70.8333,76.1667 71.5,76.5C 71.5,76.8333 71.5,77.1667 71.5,77.5C 65.9569,75.7924 61.2902,77.1258 57.5,81.5C 57.8588,79.629 58.8588,78.129 60.5,77C 63.3926,75.8512 66.3926,75.3512 69.5,75.5 Z"/></g>
<g><path style="opacity:1" fill="#f3cdfd" d="M 71.5,77.5 C 72.8333,78.5 74.1667,79.5 75.5,80.5C 76.7335,83.5352 76.7335,86.5352 75.5,89.5C 73.4914,91.5428 71.4914,93.5428 69.5,95.5C 67.1667,95.5 64.8333,95.5 62.5,95.5C 61.8333,93.5 60.5,92.1667 58.5,91.5C 57.701,88.5701 57.3677,85.5701 57.5,82.5C 57.5,82.1667 57.5,81.8333 57.5,81.5C 61.2902,77.1258 65.9569,75.7924 71.5,77.5 Z"/></g>
<g><path style="opacity:1" fill="#746795" d="M 168.5,55.5 C 170.262,56.2623 171.262,57.5956 171.5,59.5C 171.755,61.9674 172.755,63.9674 174.5,65.5C 175.11,66.391 175.443,67.391 175.5,68.5C 175.723,72.1621 176.723,75.4954 178.5,78.5C 179.387,87.8006 179.721,97.1339 179.5,106.5C 178.537,112.659 177.203,118.659 175.5,124.5C 173.386,126.019 171.72,128.019 170.5,130.5C 169.167,130.5 168.5,129.833 168.5,128.5C 170.455,126.042 172.122,123.375 173.5,120.5C 174.474,118.257 174.808,115.924 174.5,113.5C 175.158,112.602 175.824,111.602 176.5,110.5C 177.816,104.68 177.816,99.0129 176.5,93.5C 175.919,84.1752 173.919,75.1752 170.5,66.5C 169.833,62.8333 169.167,59.1667 168.5,55.5 Z"/></g>
<g><path style="opacity:1" fill="#352765" d="M 163.5,55.5 C 164.458,55.9528 165.292,56.6195 166,57.5C 167.359,60.7236 168.859,63.7236 170.5,66.5C 173.919,75.1752 175.919,84.1752 176.5,93.5C 176.162,100.203 175.495,106.87 174.5,113.5C 173.797,115.629 172.797,117.629 171.5,119.5C 172.659,115.286 172.659,111.119 171.5,107C 172.066,106.005 172.733,105.172 173.5,104.5C 174.653,98.6812 174.819,92.6812 174,86.5C 172.191,82.0764 171.191,77.4097 171,72.5C 170.617,71.944 170.117,71.6107 169.5,71.5C 167.08,68.6524 165.747,65.3191 165.5,61.5C 165.296,59.3146 164.63,57.3146 163.5,55.5 Z"/></g>
<g><path style="opacity:1" fill="#1d1446" d="M 111.5,70.5 C 112.492,70.3284 113.158,70.6618 113.5,71.5C 113.328,73.4918 113.995,75.1585 115.5,76.5C 112.619,79.0921 110.619,82.2588 109.5,86C 111.393,88.9541 112.893,92.1208 114,95.5C 114.75,96.1258 115.584,96.6258 116.5,97C 113.285,99.257 109.952,100.09 106.5,99.5C 108.68,98.8981 110.346,97.5648 111.5,95.5C 110.057,92.3263 108.724,89.1596 107.5,86C 109.294,81.2597 110.627,76.4264 111.5,71.5C 111.5,71.1667 111.5,70.8333 111.5,70.5 Z"/></g>
<g><path style="opacity:1" fill="#2f1c70" d="M 165.5,69.5 C 166.44,72.7143 167.94,75.7143 170,78.5C 170.876,82.7 171.709,86.8667 172.5,91C 170.791,95.9384 168.291,100.438 165,104.5C 155.194,110.733 144.694,112.066 133.5,108.5C 135.92,108.292 138.253,108.626 140.5,109.5C 141.522,109.145 142.189,108.478 142.5,107.5C 146.843,110.497 150.51,109.83 153.5,105.5C 156.216,105.322 158.883,104.822 161.5,104C 162.316,102.077 162.983,100.077 163.5,98C 163.836,96.9701 164.503,96.4701 165.5,96.5C 166.458,96.0472 167.292,95.3805 168,94.5C 169.491,85.3293 167.325,77.1626 161.5,70C 158.671,69.9525 156.337,68.9525 154.5,67C 149.467,66.1711 144.467,66.3377 139.5,67.5C 137.01,70.2249 134.01,72.2249 130.5,73.5C 129.691,75.0709 129.357,76.7376 129.5,78.5C 129.5,78.8333 129.5,79.1667 129.5,79.5C 126.585,79.9126 124.752,81.5793 124,84.5C 123.333,89.1667 123.333,93.8333 124,98.5C 125.045,99.3734 125.878,100.373 126.5,101.5C 124.983,101.489 123.816,100.823 123,99.5C 119.895,93.8118 119.062,87.8118 120.5,81.5C 121.41,79.9812 122.243,78.3146 123,76.5C 125.326,74.9343 127.492,73.2676 129.5,71.5C 133.227,68.2975 137.394,65.6308 142,63.5C 148.111,63.1466 154.277,63.9799 160.5,66C 162.065,67.4119 163.731,68.5786 165.5,69.5 Z"/></g>
<g><path style="opacity:1" fill="#4f29b3" d="M 153.5,77.5 C 150.465,78.4117 147.465,78.4117 144.5,77.5C 141.323,77.5821 138.989,78.9155 137.5,81.5C 135.167,81.5 132.833,81.5 130.5,81.5C 130.5,82.8333 130.5,84.1667 130.5,85.5C 129.5,85.5 128.5,85.5 127.5,85.5C 127.253,83.1417 127.919,81.1417 129.5,79.5C 130.167,79.5 130.833,79.5 131.5,79.5C 135.581,77.4814 139.914,75.8147 144.5,74.5C 147.864,74.6956 150.864,75.6956 153.5,77.5 Z"/></g>
<g><path style="opacity:1" fill="#391f8e" d="M 140.5,71.5 C 144.182,71.3347 147.848,71.5014 151.5,72C 152.416,72.2784 153.082,72.7784 153.5,73.5C 144.666,70.6803 137.332,72.6803 131.5,79.5C 130.833,79.5 130.167,79.5 129.5,79.5C 129.5,79.1667 129.5,78.8333 129.5,78.5C 131.64,73.9218 135.307,71.5885 140.5,71.5 Z"/></g>
<g><path style="opacity:1" fill="#382180" d="M 165.5,96.5 C 166.853,93.8577 167.519,91.0244 167.5,88C 165.891,83.9335 164.391,79.7669 163,75.5C 156.037,70.0559 148.537,68.7226 140.5,71.5C 135.307,71.5885 131.64,73.9218 129.5,78.5C 129.357,76.7376 129.691,75.0709 130.5,73.5C 134.01,72.2249 137.01,70.2249 139.5,67.5C 144.467,66.3377 149.467,66.1711 154.5,67C 156.337,68.9525 158.671,69.9525 161.5,70C 167.325,77.1626 169.491,85.3293 168,94.5C 167.292,95.3805 166.458,96.0472 165.5,96.5 Z"/></g>
<g><path style="opacity:1" fill="#845cc3" d="M 69.5,75.5 C 66.3926,75.3512 63.3926,75.8512 60.5,77C 58.8588,78.129 57.8588,79.629 57.5,81.5C 57.5,81.8333 57.5,82.1667 57.5,82.5C 56.3659,84.9664 56.1993,87.633 57,90.5C 57.3826,91.056 57.8826,91.3893 58.5,91.5C 60.5,92.1667 61.8333,93.5 62.5,95.5C 64.8333,95.5 67.1667,95.5 69.5,95.5C 70.1667,95.5 70.8333,95.5 71.5,95.5C 67.9707,97.4228 63.9707,98.0894 59.5,97.5C 56.8021,97.1551 54.8021,95.8218 53.5,93.5C 53.5,88.1667 53.5,82.8333 53.5,77.5C 58.7211,74.8471 64.0545,74.1804 69.5,75.5 Z"/></g>
<g><path style="opacity:1" fill="#3f2a74" d="M 70.5,71.5 C 72.1667,71.5 73.8333,71.5 75.5,71.5C 77.7088,73.8709 79.7088,76.3709 81.5,79C 81.9263,80.9843 82.2597,82.9843 82.5,85C 81.6778,88.1406 81.0112,91.3073 80.5,94.5C 80.4894,96.0174 79.8228,97.1841 78.5,98C 76.2199,98.2326 74.2199,99.066 72.5,100.5C 74.297,101.695 75.297,103.362 75.5,105.5C 72.1667,104.833 68.8333,104.167 65.5,103.5C 65.1667,102.833 64.8333,102.167 64.5,101.5C 66.698,101.88 68.3646,101.213 69.5,99.5C 71.2143,98.2616 73.2143,97.595 75.5,97.5C 75.5,96.5 75.5,95.5 75.5,94.5C 76.4959,94.5858 77.3292,94.2524 78,93.5C 78.7174,89.8626 79.2174,86.196 79.5,82.5C 79.0944,78.099 76.7611,75.099 72.5,73.5C 71.8333,72.8333 71.1667,72.1667 70.5,71.5 Z"/></g>
<g><path style="opacity:1" fill="#723cef" d="M 149.5,95.5 C 149.664,92.8127 149.497,90.146 149,87.5C 147.871,85.8588 146.371,84.8588 144.5,84.5C 144.167,83.8333 143.833,83.1667 143.5,82.5C 143.5,81.5 143.5,80.5 143.5,79.5C 148.051,81.0344 151.885,83.7011 155,87.5C 155.063,90.6608 154.229,93.6608 152.5,96.5C 150.775,98.0916 149.775,97.7583 149.5,95.5 Z"/></g>
<g><path style="opacity:1" fill="#f4eff6" d="M 22.5,90.5 C 21.87,98.4323 22.87,106.099 25.5,113.5C 25.3059,116.33 24.6392,118.996 23.5,121.5C 22.0695,121.579 20.7362,121.246 19.5,120.5C 18.2299,121.562 17.0633,122.562 16,123.5C 13.6485,120.567 12.6485,120.901 13,124.5C 17.0558,131.888 22.2225,138.388 28.5,144C 30.6736,143.063 33.0069,142.229 35.5,141.5C 38.8332,140.586 41.8332,141.419 44.5,144C 40.251,145.126 35.9177,145.792 31.5,146C 33.3115,147.041 33.6448,148.207 32.5,149.5C 11.2592,135.012 2.59249,115.012 6.5,89.5C 6.33449,93.5138 6.50115,97.5138 7,101.5C 7.5969,94.385 8.76356,87.385 10.5,80.5C 12.9328,84.2981 12.9328,88.1314 10.5,92C 11.0253,92.6924 11.6919,93.1924 12.5,93.5C 13.4274,91.8872 14.2607,90.2205 15,88.5C 15.6667,89.8333 16.3333,89.8333 17,88.5C 17.4828,87.552 17.6495,86.552 17.5,85.5C 20.5,85.8333 22.1667,87.5 22.5,90.5 Z"/></g>
<g><path style="opacity:1" fill="#7454b4" d="M 53.5,77.5 C 53.5,82.8333 53.5,88.1667 53.5,93.5C 51.955,92.7703 51.1216,91.437 51,89.5C 50.3658,86.4453 50.5325,83.4453 51.5,80.5C 52.1667,79.5 52.8333,78.5 53.5,77.5 Z"/></g>
<g><path style="opacity:1" fill="#56427e" d="M 49.5,74.5 C 49.8417,75.3382 50.5084,75.6716 51.5,75.5C 51.0081,77.8409 49.8415,79.8409 48,81.5C 47.6175,87.3392 47.4508,93.0058 47.5,98.5C 51.2227,101.717 55.2227,103.384 59.5,103.5C 58.0028,104.306 56.3361,104.972 54.5,105.5C 53.1679,108.473 51.5013,111.14 49.5,113.5C 48.5275,115.139 47.1942,116.473 45.5,117.5C 45.5394,116.417 45.8728,115.417 46.5,114.5C 45.2887,113.126 44.2887,111.626 43.5,110C 44.2335,108.234 44.5668,106.401 44.5,104.5C 41.0949,104.488 38.9283,102.821 38,99.5C 36.9609,100.71 35.7942,101.71 34.5,102.5C 34.6261,99.5322 36.1261,97.5322 39,96.5C 39.6552,94.3716 40.4886,92.3716 41.5,90.5C 42.4824,84.1538 45.149,78.8205 49.5,74.5 Z"/></g>
<g><path style="opacity:1" fill="#dccfec" d="M 192.5,68.5 C 194.277,71.5046 195.277,74.8379 195.5,78.5C 197.092,90.7736 197.758,103.107 197.5,115.5C 196.365,118.902 195.032,122.235 193.5,125.5C 194.884,117.905 195.884,110.239 196.5,102.5C 195.284,91.1674 193.95,79.8341 192.5,68.5 Z"/></g>
<g><path style="opacity:1" fill="#c396ee" d="M 57.5,82.5 C 57.3677,85.5701 57.701,88.5701 58.5,91.5C 57.8826,91.3893 57.3826,91.056 57,90.5C 56.1993,87.633 56.3659,84.9664 57.5,82.5 Z"/></g>
<g><path style="opacity:1" fill="#5e34d0" d="M 153.5,77.5 C 156.916,82.2539 158.416,87.5872 158,93.5C 155.767,96.6113 152.767,98.6113 149,99.5C 148.235,99.4301 147.735,99.0967 147.5,98.5C 148.11,97.609 148.443,96.609 148.5,95.5C 148.833,95.5 149.167,95.5 149.5,95.5C 149.775,97.7583 150.775,98.0916 152.5,96.5C 154.229,93.6608 155.063,90.6608 155,87.5C 151.885,83.7011 148.051,81.0344 143.5,79.5C 143.5,80.5 143.5,81.5 143.5,82.5C 142.5,82.5 141.5,82.5 140.5,82.5C 139.791,81.596 138.791,81.2627 137.5,81.5C 138.989,78.9155 141.323,77.5821 144.5,77.5C 147.465,78.4117 150.465,78.4117 153.5,77.5 Z"/></g>
<g><path style="opacity:1" fill="#dfdce3" d="M 24.5,85.5 C 24.208,94.9152 24.8747,104.248 26.5,113.5C 26.1667,113.5 25.8333,113.5 25.5,113.5C 22.87,106.099 21.87,98.4323 22.5,90.5C 23.1667,88.8333 23.8333,87.1667 24.5,85.5 Z"/></g>
<g><path style="opacity:1" fill="#815bb3" d="M 75.5,80.5 C 76.1174,80.6107 76.6174,80.944 77,81.5C 77.8496,86.0213 77.3496,90.3546 75.5,94.5C 74.8333,94.5 74.1667,94.5 73.5,94.5C 74.1667,92.8333 74.8333,91.1667 75.5,89.5C 76.7335,86.5352 76.7335,83.5352 75.5,80.5 Z"/></g>
<g><path style="opacity:1" fill="#3b1e88" d="M 129.5,79.5 C 127.919,81.1417 127.253,83.1417 127.5,85.5C 127.304,87.7691 126.637,90.2691 125.5,93C 126.353,97.792 129.019,100.959 133.5,102.5C 136.167,102.5 138.833,102.5 141.5,102.5C 139.781,103.022 138.448,104.022 137.5,105.5C 137.5,105.833 137.5,106.167 137.5,106.5C 133.428,105.577 129.761,103.91 126.5,101.5C 125.878,100.373 125.045,99.3734 124,98.5C 123.333,93.8333 123.333,89.1667 124,84.5C 124.752,81.5793 126.585,79.9126 129.5,79.5 Z"/></g>
<g><path style="opacity:1" fill="#605776" d="M 30.5,85.5 C 30.1755,92.6866 30.5088,99.6866 31.5,106.5C 31.5,108.167 31.5,109.833 31.5,111.5C 29.9538,106.767 29.2871,101.767 29.5,96.5C 29.5013,92.6508 29.8346,88.9841 30.5,85.5 Z"/></g>
<g><path style="opacity:1" fill="#8a7ba4" d="M 178.5,78.5 C 178.833,78.5 179.167,78.5 179.5,78.5C 179.993,80.8056 180.326,83.139 180.5,85.5C 180.825,92.6866 180.491,99.6866 179.5,106.5C 179.721,97.1339 179.387,87.8006 178.5,78.5 Z"/></g>
<g><path style="opacity:1" fill="#a99ac4" d="M 180.5,85.5 C 181.338,85.8417 181.672,86.5084 181.5,87.5C 181.68,96.5281 181.347,105.528 180.5,114.5C 179.6,118.192 177.933,121.525 175.5,124.5C 177.203,118.659 178.537,112.659 179.5,106.5C 180.491,99.6866 180.825,92.6866 180.5,85.5 Z"/></g>
<g><path style="opacity:1" fill="#60459b" d="M 51.5,80.5 C 50.5325,83.4453 50.3658,86.4453 51,89.5C 51.1216,91.437 51.955,92.7703 53.5,93.5C 54.8021,95.8218 56.8021,97.1551 59.5,97.5C 59.9175,98.2216 60.5842,98.7216 61.5,99C 64.146,99.4974 66.8127,99.6641 69.5,99.5C 68.3646,101.213 66.698,101.88 64.5,101.5C 52.4544,101.612 47.2878,95.6125 49,83.5C 49.3768,82.0577 50.2101,81.0577 51.5,80.5 Z"/></g>
<g><path style="opacity:1" fill="#bd92e1" d="M 58.5,91.5 C 60.5,92.1667 61.8333,93.5 62.5,95.5C 60.1667,95.1667 58.8333,93.8333 58.5,91.5 Z"/></g>
<g><path style="opacity:1" fill="#bb94de" d="M 75.5,89.5 C 74.8333,91.1667 74.1667,92.8333 73.5,94.5C 72.8333,94.8333 72.1667,95.1667 71.5,95.5C 70.8333,95.5 70.1667,95.5 69.5,95.5C 71.4914,93.5428 73.4914,91.5428 75.5,89.5 Z"/></g>
<g><path style="opacity:1" fill="#4f2cb4" d="M 153.5,77.5 C 155.408,77.8834 156.908,78.8834 158,80.5C 160.019,85.404 160.519,90.404 159.5,95.5C 156.802,97.2252 154.802,99.5586 153.5,102.5C 148.132,103.572 142.799,104.572 137.5,105.5C 138.448,104.022 139.781,103.022 141.5,102.5C 144.285,103.084 145.952,102.084 146.5,99.5C 146.5,98.8333 146.833,98.5 147.5,98.5C 147.735,99.0967 148.235,99.4301 149,99.5C 152.767,98.6113 155.767,96.6113 158,93.5C 158.416,87.5872 156.916,82.2539 153.5,77.5 Z"/></g>
<g><path style="opacity:1" fill="#3f268e" d="M 165.5,96.5 C 164.503,96.4701 163.836,96.9701 163.5,98C 162.983,100.077 162.316,102.077 161.5,104C 158.883,104.822 156.216,105.322 153.5,105.5C 153.5,104.5 153.5,103.5 153.5,102.5C 159.639,100.354 163.306,96.0205 164.5,89.5C 163.039,85.2247 161.539,80.8913 160,76.5C 158.266,74.5494 156.099,73.5494 153.5,73.5C 153.082,72.7784 152.416,72.2784 151.5,72C 147.848,71.5014 144.182,71.3347 140.5,71.5C 148.537,68.7226 156.037,70.0559 163,75.5C 164.391,79.7669 165.891,83.9335 167.5,88C 167.519,91.0244 166.853,93.8577 165.5,96.5 Z"/></g>
<g><path style="opacity:1" fill="#33245e" d="M 75.5,67.5 C 76.9778,67.238 78.3112,67.5713 79.5,68.5C 80.5207,69.9014 81.5207,71.2347 82.5,72.5C 83.4787,74.1454 84.812,75.4787 86.5,76.5C 85.6218,78.7482 85.9551,80.9149 87.5,83C 86.2889,84.1131 86.2889,85.2798 87.5,86.5C 85.5362,89.0178 84.8695,91.6845 85.5,94.5C 84.1912,96.9757 82.3579,98.9757 80,100.5C 79.7266,102.101 79.2266,103.601 78.5,105C 76.3885,105.845 74.3885,106.678 72.5,107.5C 70.1799,109.226 67.5133,109.893 64.5,109.5C 65.1495,107.565 65.4828,105.565 65.5,103.5C 68.8333,104.167 72.1667,104.833 75.5,105.5C 75.297,103.362 74.297,101.695 72.5,100.5C 74.2199,99.066 76.2199,98.2326 78.5,98C 79.8228,97.1841 80.4894,96.0174 80.5,94.5C 82.3454,91.4609 83.6787,88.1275 84.5,84.5C 84.9044,77.6027 81.9044,73.2694 75.5,71.5C 71.1508,68.2878 66.1508,66.9545 60.5,67.5C 65.1958,64.5731 69.6958,64.9064 74,68.5C 74.7648,68.4301 75.2648,68.0967 75.5,67.5 Z"/></g>
<g><path style="opacity:1" fill="#482ba2" d="M 153.5,73.5 C 156.099,73.5494 158.266,74.5494 160,76.5C 161.539,80.8913 163.039,85.2247 164.5,89.5C 163.306,96.0205 159.639,100.354 153.5,102.5C 154.802,99.5586 156.802,97.2252 159.5,95.5C 160.519,90.404 160.019,85.404 158,80.5C 156.908,78.8834 155.408,77.8834 153.5,77.5C 150.864,75.6956 147.864,74.6956 144.5,74.5C 139.914,75.8147 135.581,77.4814 131.5,79.5C 137.332,72.6803 144.666,70.6803 153.5,73.5 Z"/></g>
<g><path style="opacity:1" fill="#59438b" d="M 55.5,72.5 C 54.8333,73.5 54.1667,74.5 53.5,75.5C 53.5,76.1667 53.5,76.8333 53.5,77.5C 52.8333,78.5 52.1667,79.5 51.5,80.5C 50.2101,81.0577 49.3768,82.0577 49,83.5C 47.2878,95.6125 52.4544,101.612 64.5,101.5C 64.8333,102.167 65.1667,102.833 65.5,103.5C 63.5,103.5 61.5,103.5 59.5,103.5C 55.2227,103.384 51.2227,101.717 47.5,98.5C 47.4508,93.0058 47.6175,87.3392 48,81.5C 49.8415,79.8409 51.0081,77.8409 51.5,75.5C 52.2623,73.7376 53.5956,72.7376 55.5,72.5 Z"/></g>
<g><path style="opacity:1" fill="#603ca0" d="M 73.5,94.5 C 74.1667,94.5 74.8333,94.5 75.5,94.5C 75.5,95.5 75.5,96.5 75.5,97.5C 73.2143,97.595 71.2143,98.2616 69.5,99.5C 66.8127,99.6641 64.146,99.4974 61.5,99C 60.5842,98.7216 59.9175,98.2216 59.5,97.5C 63.9707,98.0894 67.9707,97.4228 71.5,95.5C 72.1667,95.1667 72.8333,94.8333 73.5,94.5 Z"/></g>
<g><path style="opacity:1" fill="#72639c" d="M 176.5,93.5 C 177.816,99.0129 177.816,104.68 176.5,110.5C 175.824,111.602 175.158,112.602 174.5,113.5C 175.495,106.87 176.162,100.203 176.5,93.5 Z"/></g>
<g><path style="opacity:1" fill="#463d5f" d="M 32.5,73.5 C 32.8333,73.5 33.1667,73.5 33.5,73.5C 33.5,74.8333 33.5,76.1667 33.5,77.5C 33.0941,84.5279 32.4274,91.5279 31.5,98.5C 31.5,101.167 31.5,103.833 31.5,106.5C 30.5088,99.6866 30.1755,92.6866 30.5,85.5C 30.9521,81.4543 31.6187,77.4543 32.5,73.5 Z"/></g>
<g><path style="opacity:1" fill="#4e3e6f" d="M 39.5,86.5 C 39.3398,88.1992 39.5065,89.8659 40,91.5C 40.3826,90.944 40.8826,90.6107 41.5,90.5C 40.4886,92.3716 39.6552,94.3716 39,96.5C 36.1261,97.5322 34.6261,99.5322 34.5,102.5C 33.9633,107.266 34.9633,111.6 37.5,115.5C 36.5041,115.586 35.6708,115.252 35,114.5C 33.522,111.842 32.3554,109.175 31.5,106.5C 31.5,103.833 31.5,101.167 31.5,98.5C 31.6727,93.8202 33.6727,90.1536 37.5,87.5C 38.1667,87.1667 38.8333,86.8333 39.5,86.5 Z"/></g>
<g><path style="opacity:1" fill="#5a467c" d="M 45.5,117.5 C 44.5714,118.936 43.4048,120.269 42,121.5C 41.5831,120.244 40.7498,119.577 39.5,119.5C 38.3995,118.395 37.7329,117.062 37.5,115.5C 34.9633,111.6 33.9633,107.266 34.5,102.5C 35.7942,101.71 36.9609,100.71 38,99.5C 38.9283,102.821 41.0949,104.488 44.5,104.5C 44.5668,106.401 44.2335,108.234 43.5,110C 44.2887,111.626 45.2887,113.126 46.5,114.5C 45.8728,115.417 45.5394,116.417 45.5,117.5 Z"/></g>
<g><path style="opacity:1" fill="#211452" d="M 156.5,52.5 C 159.119,52.9255 161.453,53.9255 163.5,55.5C 164.63,57.3146 165.296,59.3146 165.5,61.5C 164.067,60.1667 162.733,58.6667 161.5,57C 153.365,54.885 145.365,55.385 137.5,58.5C 133.97,61.1955 130.304,63.6955 126.5,66C 121.457,69.9578 119.457,75.1245 120.5,81.5C 117.569,87.9004 117.902,94.2337 121.5,100.5C 120.39,102.496 120.724,104.329 122.5,106C 127.706,109.103 133.04,111.936 138.5,114.5C 144.364,113.184 150.197,113.184 156,114.5C 158.382,113.446 160.882,112.779 163.5,112.5C 163.33,111.178 163.663,110.011 164.5,109C 166.527,107.121 168.86,105.954 171.5,105.5C 171.338,103.473 171.505,101.473 172,99.5C 173.269,100.905 173.769,102.571 173.5,104.5C 172.733,105.172 172.066,106.005 171.5,107C 172.659,111.119 172.659,115.286 171.5,119.5C 170.32,122.54 168.653,125.206 166.5,127.5C 166.339,124.472 167.006,121.639 168.5,119C 168.355,118.228 168.022,117.561 167.5,117C 161.194,115.583 154.861,115.75 148.5,117.5C 146.088,117.594 144.255,116.594 143,114.5C 138.482,116.577 133.649,116.077 128.5,113C 124.352,109.686 120.352,106.186 116.5,102.5C 114.544,104.351 113.544,106.684 113.5,109.5C 113.048,113.575 111.548,117.242 109,120.5C 107.378,121.099 105.878,121.766 104.5,122.5C 100.131,122.533 95.7978,122.2 91.5,121.5C 91.5,120.5 91.5,119.5 91.5,118.5C 91.5,117.5 91.5,116.5 91.5,115.5C 92.8333,115.833 94.1667,116.167 95.5,116.5C 96.391,117.11 97.391,117.443 98.5,117.5C 99.2739,118.147 100.274,118.48 101.5,118.5C 103.355,118.66 104.688,117.993 105.5,116.5C 107.404,116.262 108.738,115.262 109.5,113.5C 110.265,110.904 110.599,108.237 110.5,105.5C 107.5,105.5 104.5,105.5 101.5,105.5C 101.5,105.167 101.5,104.833 101.5,104.5C 98.0381,103.518 94.3714,103.185 90.5,103.5C 90.5,102.833 90.8333,102.5 91.5,102.5C 95.3494,102.403 99.1827,102.069 103,101.5C 105.05,101.691 106.883,102.358 108.5,103.5C 110.544,101.645 112.711,100.978 115,101.5C 116.464,100.541 117.297,99.2077 117.5,97.5C 115.627,95.8507 115.294,94.0174 116.5,92C 112.479,87.8375 112.979,84.0041 118,80.5C 118.017,72.8666 121.017,66.8666 127,62.5C 128.993,55.6818 133.326,53.0152 140,54.5C 145.309,52.0879 150.809,51.4212 156.5,52.5 Z"/></g>
<g><path style="opacity:1" fill="#432c66" d="M 90.5,103.5 C 94.3714,103.185 98.0381,103.518 101.5,104.5C 97.8333,104.5 94.1667,104.5 90.5,104.5C 90.2155,106.415 90.5489,108.081 91.5,109.5C 92.3847,112.061 93.7181,114.394 95.5,116.5C 94.1667,116.167 92.8333,115.833 91.5,115.5C 90.6495,112.423 89.6495,109.423 88.5,106.5C 88.6399,104.97 89.3065,103.97 90.5,103.5 Z"/></g>
<g><path style="opacity:1" fill="#908aa2" d="M 32.5,73.5 C 31.6187,77.4543 30.9521,81.4543 30.5,85.5C 29.8346,88.9841 29.5013,92.6508 29.5,96.5C 29.2871,101.767 29.9538,106.767 31.5,111.5C 32.5375,112.93 33.2041,114.597 33.5,116.5C 32.3569,116.092 31.3569,115.425 30.5,114.5C 26.4822,100.847 26.6488,87.1802 31,73.5C 31.7792,70.9028 32.2792,70.9028 32.5,73.5 Z"/></g>
<g><path style="opacity:0.442" fill="#f2e9f9" d="M 195.5,78.5 C 196.963,81.2026 197.796,84.2026 198,87.5C 198.824,97.0092 198.658,106.343 197.5,115.5C 197.758,103.107 197.092,90.7736 195.5,78.5 Z"/></g>
<g><path style="opacity:1" fill="#a187c0" d="M 101.5,104.5 C 101.5,104.833 101.5,105.167 101.5,105.5C 98.1667,105.5 94.8333,105.5 91.5,105.5C 91.5,106.833 91.5,108.167 91.5,109.5C 90.5489,108.081 90.2155,106.415 90.5,104.5C 94.1667,104.5 97.8333,104.5 101.5,104.5 Z"/></g>
<g><path style="opacity:1" fill="#24165e" d="M 165.5,69.5 C 166.794,70.2899 167.961,71.2899 169,72.5C 169.399,72.2716 169.565,71.9382 169.5,71.5C 170.117,71.6107 170.617,71.944 171,72.5C 171.191,77.4097 172.191,82.0764 174,86.5C 174.819,92.6812 174.653,98.6812 173.5,104.5C 173.769,102.571 173.269,100.905 172,99.5C 171.505,101.473 171.338,103.473 171.5,105.5C 168.86,105.954 166.527,107.121 164.5,109C 163.663,110.011 163.33,111.178 163.5,112.5C 160.882,112.779 158.382,113.446 156,114.5C 150.197,113.184 144.364,113.184 138.5,114.5C 133.04,111.936 127.706,109.103 122.5,106C 120.724,104.329 120.39,102.496 121.5,100.5C 117.902,94.2337 117.569,87.9004 120.5,81.5C 119.062,87.8118 119.895,93.8118 123,99.5C 123.816,100.823 124.983,101.489 126.5,101.5C 127.16,104.649 129.16,106.149 132.5,106C 133.252,106.671 133.586,107.504 133.5,108.5C 144.694,112.066 155.194,110.733 165,104.5C 168.291,100.438 170.791,95.9384 172.5,91C 171.709,86.8667 170.876,82.7 170,78.5C 167.94,75.7143 166.44,72.7143 165.5,69.5 Z"/></g>
<g><path style="opacity:1" fill="#35188f" d="M 153.5,102.5 C 153.5,103.5 153.5,104.5 153.5,105.5C 149.575,105.43 145.909,106.097 142.5,107.5C 140.784,107.371 139.117,107.038 137.5,106.5C 137.5,106.167 137.5,105.833 137.5,105.5C 142.799,104.572 148.132,103.572 153.5,102.5 Z"/></g>
<g><path style="opacity:1" fill="#281171" d="M 126.5,101.5 C 129.761,103.91 133.428,105.577 137.5,106.5C 139.117,107.038 140.784,107.371 142.5,107.5C 142.189,108.478 141.522,109.145 140.5,109.5C 138.253,108.626 135.92,108.292 133.5,108.5C 133.586,107.504 133.252,106.671 132.5,106C 129.16,106.149 127.16,104.649 126.5,101.5 Z"/></g>
<g><path style="opacity:1" fill="#6c41bc" d="M 146.5,99.5 C 145.952,102.084 144.285,103.084 141.5,102.5C 141.5,102.167 141.5,101.833 141.5,101.5C 143.514,101.608 145.18,100.942 146.5,99.5 Z"/></g>
<g><path style="opacity:1" fill="#b48de5" d="M 132.5,100.5 C 135.43,101.299 138.43,101.632 141.5,101.5C 141.5,101.833 141.5,102.167 141.5,102.5C 138.833,102.5 136.167,102.5 133.5,102.5C 133.167,101.833 132.833,101.167 132.5,100.5 Z"/></g>
<g><path style="opacity:1" fill="#b88bf1" d="M 147.5,88.5 C 148.468,90.6074 148.802,92.9407 148.5,95.5C 148.443,96.609 148.11,97.609 147.5,98.5C 146.833,98.5 146.5,98.8333 146.5,99.5C 145.18,100.942 143.514,101.608 141.5,101.5C 143.473,100.194 145.139,98.5273 146.5,96.5C 147.473,94.0521 147.806,91.3854 147.5,88.5 Z"/></g>
<g><path style="opacity:1" fill="#b48de3" d="M 130.5,85.5 C 130.833,85.5 131.167,85.5 131.5,85.5C 129.78,88.8892 129.113,92.5559 129.5,96.5C 127.993,92.7166 128.327,89.0499 130.5,85.5 Z"/></g>
<g><path style="opacity:1" fill="#ebbdff" d="M 143.5,84.5 C 143.833,84.5 144.167,84.5 144.5,84.5C 145.5,85.8333 146.5,87.1667 147.5,88.5C 147.806,91.3854 147.473,94.0521 146.5,96.5C 146.664,93.8127 146.497,91.146 146,88.5C 144.519,87.5291 143.685,86.1958 143.5,84.5 Z"/></g>
<g><path style="opacity:1" fill="#945df0" d="M 144.5,84.5 C 146.371,84.8588 147.871,85.8588 149,87.5C 149.497,90.146 149.664,92.8127 149.5,95.5C 149.167,95.5 148.833,95.5 148.5,95.5C 148.802,92.9407 148.468,90.6074 147.5,88.5C 146.5,87.1667 145.5,85.8333 144.5,84.5 Z"/></g>
<g><path style="opacity:1" fill="#5e39a2" d="M 127.5,85.5 C 128.5,85.5 129.5,85.5 130.5,85.5C 128.327,89.0499 127.993,92.7166 129.5,96.5C 130.488,97.795 131.488,99.1283 132.5,100.5C 132.833,101.167 133.167,101.833 133.5,102.5C 129.019,100.959 126.353,97.792 125.5,93C 126.637,90.2691 127.304,87.7691 127.5,85.5 Z"/></g>
<g><path style="opacity:1" fill="#f5d0fc" d="M 133.5,83.5 C 136.939,83.2529 140.272,83.5863 143.5,84.5C 143.685,86.1958 144.519,87.5291 146,88.5C 146.497,91.146 146.664,93.8127 146.5,96.5C 145.139,98.5273 143.473,100.194 141.5,101.5C 138.43,101.632 135.43,101.299 132.5,100.5C 131.488,99.1283 130.488,97.795 129.5,96.5C 129.113,92.5559 129.78,88.8892 131.5,85.5C 132.5,85.1667 133.167,84.5 133.5,83.5 Z"/></g>
<g><path style="opacity:1" fill="#9970d7" d="M 133.5,83.5 C 133.167,84.5 132.5,85.1667 131.5,85.5C 131.5,84.1667 132.167,83.5 133.5,83.5 Z"/></g>
<g><path style="opacity:1" fill="#ba8df5" d="M 133.5,83.5 C 135.607,82.5318 137.941,82.1984 140.5,82.5C 141.5,82.5 142.5,82.5 143.5,82.5C 143.833,83.1667 144.167,83.8333 144.5,84.5C 144.167,84.5 143.833,84.5 143.5,84.5C 140.272,83.5863 136.939,83.2529 133.5,83.5 Z"/></g>
<g><path style="opacity:1" fill="#6d40c4" d="M 137.5,81.5 C 138.791,81.2627 139.791,81.596 140.5,82.5C 137.941,82.1984 135.607,82.5318 133.5,83.5C 132.167,83.5 131.5,84.1667 131.5,85.5C 131.167,85.5 130.833,85.5 130.5,85.5C 130.5,84.1667 130.5,82.8333 130.5,81.5C 132.833,81.5 135.167,81.5 137.5,81.5 Z"/></g>
<g><path style="opacity:1" fill="#eeccf9" d="M 101.5,105.5 C 104.5,105.5 107.5,105.5 110.5,105.5C 110.599,108.237 110.265,110.904 109.5,113.5C 107.938,113.733 106.605,114.4 105.5,115.5C 102.482,115.665 99.4816,115.498 96.5,115C 94.9675,112.971 93.3008,111.138 91.5,109.5C 91.5,108.167 91.5,106.833 91.5,105.5C 94.8333,105.5 98.1667,105.5 101.5,105.5 Z"/></g>
<g><path style="opacity:1" fill="#2b157b" d="M 153.5,105.5 C 150.51,109.83 146.843,110.497 142.5,107.5C 145.909,106.097 149.575,105.43 153.5,105.5 Z"/></g>
<g><path style="opacity:1" fill="#48346f" d="M 59.5,103.5 C 61.5,103.5 63.5,103.5 65.5,103.5C 65.4828,105.565 65.1495,107.565 64.5,109.5C 62.1644,111.004 60.331,113.004 59,115.5C 58.6012,115.272 58.4346,114.938 58.5,114.5C 58.44,113.957 58.1067,113.624 57.5,113.5C 55.8405,114.172 54.5072,115.172 53.5,116.5C 53.6495,115.448 53.4828,114.448 53,113.5C 50.9277,116.915 49.761,116.915 49.5,113.5C 51.5013,111.14 53.1679,108.473 54.5,105.5C 56.3361,104.972 58.0028,104.306 59.5,103.5 Z"/></g>
<g><path style="opacity:1" fill="#2b2049" d="M 84.5,108.5 C 83.8333,108.5 83.1667,108.5 82.5,108.5C 80.066,109.295 77.8994,109.962 76,110.5C 75.6852,113.372 75.1852,116.205 74.5,119C 75.2468,123.521 77.2468,124.355 80.5,121.5C 81.3816,122.76 82.3816,123.926 83.5,125C 80.9974,126.549 80.9974,128.216 83.5,130C 88.3643,130.782 92.6976,132.615 96.5,135.5C 100.144,136.667 103.81,138.001 107.5,139.5C 108.557,140.206 108.224,140.539 106.5,140.5C 99.0205,138.214 91.3539,136.381 83.5,135C 78.6842,132.759 74.0175,130.259 69.5,127.5C 67.657,124.436 67.157,121.103 68,117.5C 70.2204,114.46 71.7204,111.127 72.5,107.5C 75.2116,107.263 77.7116,107.263 80,107.5C 82.1216,104.817 83.6216,105.15 84.5,108.5 Z"/></g>
<g><path style="opacity:1" fill="#231a41" d="M 82.5,108.5 C 84.3511,112.367 86.3511,116.201 88.5,120C 86.7536,120.471 85.087,121.138 83.5,122C 85.8333,123.167 88.1667,124.333 90.5,125.5C 91.1667,124.833 91.8333,124.167 92.5,123.5C 93.7362,124.246 95.0695,124.579 96.5,124.5C 96.2606,126.467 96.5939,128.301 97.5,130C 100.536,132.006 103.869,132.84 107.5,132.5C 105.863,133.38 104.03,134.046 102,134.5C 100.027,132.347 98.1941,132.68 96.5,135.5C 92.6976,132.615 88.3643,130.782 83.5,130C 80.9974,128.216 80.9974,126.549 83.5,125C 82.3816,123.926 81.3816,122.76 80.5,121.5C 77.2468,124.355 75.2468,123.521 74.5,119C 75.1852,116.205 75.6852,113.372 76,110.5C 77.8994,109.962 80.066,109.295 82.5,108.5 Z"/></g>
<g><path style="opacity:1" fill="#4e3d6e" d="M 49.5,113.5 C 49.761,116.915 50.9277,116.915 53,113.5C 53.4828,114.448 53.6495,115.448 53.5,116.5C 52.2182,119.679 50.8848,122.846 49.5,126C 50.756,126.417 51.4226,127.25 51.5,128.5C 45.2844,128.336 41.2844,125.336 39.5,119.5C 40.7498,119.577 41.5831,120.244 42,121.5C 43.4048,120.269 44.5714,118.936 45.5,117.5C 47.1942,116.473 48.5275,115.139 49.5,113.5 Z"/></g>
<g><path style="opacity:1" fill="#392b59" d="M 72.5,107.5 C 71.7204,111.127 70.2204,114.46 68,117.5C 67.157,121.103 67.657,124.436 69.5,127.5C 69.0618,127.435 68.7284,127.601 68.5,128C 70.8424,130.904 73.8424,132.904 77.5,134C 76.6195,134.708 75.9528,135.542 75.5,136.5C 72.5436,136.679 69.7102,135.679 67,133.5C 65.9505,134.517 64.7839,134.684 63.5,134C 65.9288,133.549 66.0955,132.715 64,131.5C 62.6507,134.07 61.484,134.07 60.5,131.5C 58.9035,127.717 58.5702,123.883 59.5,120C 57.7088,118.21 57.3754,116.377 58.5,114.5C 58.4346,114.938 58.6012,115.272 59,115.5C 60.331,113.004 62.1644,111.004 64.5,109.5C 67.5133,109.893 70.1799,109.226 72.5,107.5 Z"/></g>
<g><path style="opacity:1" fill="#705490" d="M 109.5,113.5 C 108.738,115.262 107.404,116.262 105.5,116.5C 105.5,116.167 105.5,115.833 105.5,115.5C 106.605,114.4 107.938,113.733 109.5,113.5 Z"/></g>
<g><path style="opacity:1" fill="#d4bdf1" d="M 181.5,87.5 C 182.329,95.3228 182.829,103.323 183,111.5C 183.667,112.833 184.333,112.833 185,111.5C 185.49,112.793 185.657,114.127 185.5,115.5C 187.541,115.146 189.374,115.146 191,115.5C 191.202,113.744 191.702,112.078 192.5,110.5C 193.021,115.16 193.021,120.16 192.5,125.5C 191.833,125.833 191.167,126.167 190.5,126.5C 190.189,125.522 189.522,124.855 188.5,124.5C 186.885,125.154 185.218,125.654 183.5,126C 184.167,126.333 184.833,126.667 185.5,127C 184.207,127.49 182.873,127.657 181.5,127.5C 181.414,125.323 180.747,123.323 179.5,121.5C 180.374,119.253 180.708,116.92 180.5,114.5C 181.347,105.528 181.68,96.5281 181.5,87.5 Z"/></g>
<g><path style="opacity:1" fill="#ccaae4" d="M 91.5,109.5 C 93.3008,111.138 94.9675,112.971 96.5,115C 99.4816,115.498 102.482,115.665 105.5,115.5C 105.5,115.833 105.5,116.167 105.5,116.5C 103.236,117.219 100.903,117.552 98.5,117.5C 97.391,117.443 96.391,117.11 95.5,116.5C 93.7181,114.394 92.3847,112.061 91.5,109.5 Z"/></g>
<g><path style="opacity:1" fill="#1a1148" d="M 166.5,127.5 C 165.4,128.605 164.733,129.938 164.5,131.5C 163.833,131.833 163.167,132.167 162.5,132.5C 159.311,134.18 155.978,135.514 152.5,136.5C 154.429,134.852 156.429,133.185 158.5,131.5C 159.074,128.823 159.741,126.157 160.5,123.5C 161.768,124.428 163.101,124.595 164.5,124C 163.62,122.644 163.286,121.144 163.5,119.5C 159.17,119.568 155.337,120.901 152,123.5C 148.667,122.167 145.333,122.167 142,123.5C 139.984,122.045 139.151,120.045 139.5,117.5C 138.178,117.33 137.011,117.663 136,118.5C 132.494,117.26 128.994,116.26 125.5,115.5C 122.921,112.611 120.421,109.611 118,106.5C 116.06,106.957 114.56,107.957 113.5,109.5C 113.544,106.684 114.544,104.351 116.5,102.5C 120.352,106.186 124.352,109.686 128.5,113C 133.649,116.077 138.482,116.577 143,114.5C 144.255,116.594 146.088,117.594 148.5,117.5C 154.861,115.75 161.194,115.583 167.5,117C 168.022,117.561 168.355,118.228 168.5,119C 167.006,121.639 166.339,124.472 166.5,127.5 Z"/></g>
<g><path style="opacity:1" fill="#433462" d="M 58.5,114.5 C 57.3754,116.377 57.7088,118.21 59.5,120C 58.5702,123.883 58.9035,127.717 60.5,131.5C 59.0413,131.433 57.7079,131.766 56.5,132.5C 55.1466,130.817 53.4799,129.484 51.5,128.5C 51.4226,127.25 50.756,126.417 49.5,126C 50.8848,122.846 52.2182,119.679 53.5,116.5C 54.5072,115.172 55.8405,114.172 57.5,113.5C 58.1067,113.624 58.44,113.957 58.5,114.5 Z"/></g>
<g><path style="opacity:1" fill="#523878" d="M 105.5,116.5 C 104.688,117.993 103.355,118.66 101.5,118.5C 100.274,118.48 99.2739,118.147 98.5,117.5C 100.903,117.552 103.236,117.219 105.5,116.5 Z"/></g>
<g><path style="opacity:1" fill="#f4ecf8" d="M 25.5,113.5 C 25.8333,113.5 26.1667,113.5 26.5,113.5C 27.4013,114.29 28.0679,115.29 28.5,116.5C 29.038,118.117 29.3713,119.784 29.5,121.5C 30.3733,123.886 31.8733,125.886 34,127.5C 34.5704,132.456 35.0704,137.122 35.5,141.5C 33.0069,142.229 30.6736,143.063 28.5,144C 22.2225,138.388 17.0558,131.888 13,124.5C 12.6485,120.901 13.6485,120.567 16,123.5C 17.0633,122.562 18.2299,121.562 19.5,120.5C 20.7362,121.246 22.0695,121.579 23.5,121.5C 24.6392,118.996 25.3059,116.33 25.5,113.5 Z"/></g>
<g><path style="opacity:1" fill="#181041" d="M 152.5,136.5 C 151.833,136.5 151.167,136.5 150.5,136.5C 150.414,135.504 150.748,134.671 151.5,134C 153.044,133.71 154.377,133.044 155.5,132C 152.346,130.919 149.679,129.086 147.5,126.5C 144.232,125.513 140.898,125.18 137.5,125.5C 135.965,124.156 134.632,122.489 133.5,120.5C 130.5,119.667 127.5,118.833 124.5,118C 123.809,116.933 123.309,115.766 123,114.5C 120.683,113.18 118.683,111.514 117,109.5C 115.333,113.685 113.167,117.685 110.5,121.5C 109.423,122.705 108.09,123.372 106.5,123.5C 106.158,122.662 105.492,122.328 104.5,122.5C 105.878,121.766 107.378,121.099 109,120.5C 111.548,117.242 113.048,113.575 113.5,109.5C 114.56,107.957 116.06,106.957 118,106.5C 120.421,109.611 122.921,112.611 125.5,115.5C 128.994,116.26 132.494,117.26 136,118.5C 137.011,117.663 138.178,117.33 139.5,117.5C 139.151,120.045 139.984,122.045 142,123.5C 145.333,122.167 148.667,122.167 152,123.5C 155.337,120.901 159.17,119.568 163.5,119.5C 163.286,121.144 163.62,122.644 164.5,124C 163.101,124.595 161.768,124.428 160.5,123.5C 159.741,126.157 159.074,128.823 158.5,131.5C 156.429,133.185 154.429,134.852 152.5,136.5 Z"/></g>
<g><path style="opacity:1" fill="#66588d" d="M 174.5,113.5 C 174.808,115.924 174.474,118.257 173.5,120.5C 172.122,123.375 170.455,126.042 168.5,128.5C 167.167,129.5 165.833,130.5 164.5,131.5C 164.733,129.938 165.4,128.605 166.5,127.5C 168.653,125.206 170.32,122.54 171.5,119.5C 172.797,117.629 173.797,115.629 174.5,113.5 Z"/></g>
<g><path style="opacity:1" fill="#18113a" d="M 137.5,125.5 C 136.817,127.176 135.483,127.843 133.5,127.5C 133.715,129.179 133.048,130.179 131.5,130.5C 127.315,129.595 122.981,129.429 118.5,130C 116.715,128.837 114.715,128.17 112.5,128C 111.778,125.213 110.278,124.38 108,125.5C 106.97,125.164 106.47,124.497 106.5,123.5C 108.09,123.372 109.423,122.705 110.5,121.5C 113.167,117.685 115.333,113.685 117,109.5C 118.683,111.514 120.683,113.18 123,114.5C 123.309,115.766 123.809,116.933 124.5,118C 127.5,118.833 130.5,119.667 133.5,120.5C 134.632,122.489 135.965,124.156 137.5,125.5 Z"/></g>
<g><path style="opacity:0.067" fill="#f3e9fa" d="M 197.5,115.5 C 197.052,121.315 195.385,126.648 192.5,131.5C 192.833,129.5 193.167,127.5 193.5,125.5C 195.032,122.235 196.365,118.902 197.5,115.5 Z"/></g>
<g><path style="opacity:1" fill="#1e153f" d="M 82.5,108.5 C 83.1667,108.5 83.8333,108.5 84.5,108.5C 86.844,111.865 89.1773,115.198 91.5,118.5C 91.5,119.5 91.5,120.5 91.5,121.5C 95.7978,122.2 100.131,122.533 104.5,122.5C 105.492,122.328 106.158,122.662 106.5,123.5C 106.47,124.497 106.97,125.164 108,125.5C 110.278,124.38 111.778,125.213 112.5,128C 114.715,128.17 116.715,128.837 118.5,130C 122.981,129.429 127.315,129.595 131.5,130.5C 128.063,131.239 124.563,132.239 121,133.5C 117.512,132.769 114.012,132.102 110.5,131.5C 109.274,131.52 108.274,131.853 107.5,132.5C 103.869,132.84 100.536,132.006 97.5,130C 96.5939,128.301 96.2606,126.467 96.5,124.5C 95.0695,124.579 93.7362,124.246 92.5,123.5C 91.8333,124.167 91.1667,124.833 90.5,125.5C 88.1667,124.333 85.8333,123.167 83.5,122C 85.087,121.138 86.7536,120.471 88.5,120C 86.3511,116.201 84.3511,112.367 82.5,108.5 Z"/></g>
<g><path style="opacity:1" fill="#4b4063" d="M 31.5,106.5 C 32.3554,109.175 33.522,111.842 35,114.5C 35.6708,115.252 36.5041,115.586 37.5,115.5C 37.7329,117.062 38.3995,118.395 39.5,119.5C 41.2844,125.336 45.2844,128.336 51.5,128.5C 53.4799,129.484 55.1466,130.817 56.5,132.5C 56.5,132.833 56.5,133.167 56.5,133.5C 56.5,134.167 56.1667,134.5 55.5,134.5C 52.1951,131.215 48.1951,129.215 43.5,128.5C 40.4728,126.14 37.8062,123.473 35.5,120.5C 35.2671,118.938 34.6005,117.605 33.5,116.5C 33.2041,114.597 32.5375,112.93 31.5,111.5C 31.5,109.833 31.5,108.167 31.5,106.5 Z"/></g>
<g><path style="opacity:1" fill="#aba7b6" d="M 28.5,116.5 C 29.9059,118.474 31.4059,120.474 33,122.5C 33.0748,120.065 33.9081,119.398 35.5,120.5C 37.8062,123.473 40.4728,126.14 43.5,128.5C 44.1667,129.5 44.8333,130.5 45.5,131.5C 43.5,131.5 41.5,131.5 39.5,131.5C 36.5271,127.86 33.1938,124.527 29.5,121.5C 29.3713,119.784 29.038,118.117 28.5,116.5 Z"/></g>
<g><path style="opacity:1" fill="#1c1441" d="M 137.5,125.5 C 140.898,125.18 144.232,125.513 147.5,126.5C 149.679,129.086 152.346,130.919 155.5,132C 154.377,133.044 153.044,133.71 151.5,134C 150.748,134.671 150.414,135.504 150.5,136.5C 148.58,137.065 146.913,138.065 145.5,139.5C 139.108,137.9 132.775,137.567 126.5,138.5C 120.709,135.259 114.376,133.259 107.5,132.5C 108.274,131.853 109.274,131.52 110.5,131.5C 114.012,132.102 117.512,132.769 121,133.5C 124.563,132.239 128.063,131.239 131.5,130.5C 133.048,130.179 133.715,129.179 133.5,127.5C 135.483,127.843 136.817,127.176 137.5,125.5 Z"/></g>
<g><path style="opacity:1" fill="#544d64" d="M 43.5,128.5 C 48.1951,129.215 52.1951,131.215 55.5,134.5C 55.8333,135.167 56.1667,135.833 56.5,136.5C 52.6837,135.091 49.0171,133.424 45.5,131.5C 44.8333,130.5 44.1667,129.5 43.5,128.5 Z"/></g>
<g><path style="opacity:1" fill="#bbb7c1" d="M 39.5,131.5 C 41.5,131.5 43.5,131.5 45.5,131.5C 49.0171,133.424 52.6837,135.091 56.5,136.5C 57.4916,136.328 58.1583,136.662 58.5,137.5C 61.2154,139.072 64.2154,140.072 67.5,140.5C 68.5676,141.434 69.901,141.768 71.5,141.5C 72.9899,143.28 74.9899,143.946 77.5,143.5C 77.8333,143.5 78.1667,143.5 78.5,143.5C 80.3268,144.691 81.9934,146.025 83.5,147.5C 80.5701,146.701 77.5701,146.368 74.5,146.5C 70.0892,145.402 65.7559,144.069 61.5,142.5C 53.318,140.409 45.9847,136.742 39.5,131.5 Z"/></g>
<g><path style="opacity:1" fill="#322850" d="M 69.5,127.5 C 74.0175,130.259 78.6842,132.759 83.5,135C 91.3539,136.381 99.0205,138.214 106.5,140.5C 107.731,141.718 108.898,143.051 110,144.5C 110.333,144.167 110.667,143.833 111,143.5C 115.652,145.183 120.485,145.85 125.5,145.5C 119.69,146.49 113.69,146.823 107.5,146.5C 98.763,145.393 90.0963,143.726 81.5,141.5C 81.67,140.178 81.3366,139.011 80.5,138C 78.7525,137.648 77.0858,137.148 75.5,136.5C 75.9528,135.542 76.6195,134.708 77.5,134C 73.8424,132.904 70.8424,130.904 68.5,128C 68.7284,127.601 69.0618,127.435 69.5,127.5 Z"/></g>
<g><path style="opacity:1" fill="#231a46" d="M 107.5,132.5 C 114.376,133.259 120.709,135.259 126.5,138.5C 125.07,138.421 123.736,138.754 122.5,139.5C 117.71,138.488 113.044,137.821 108.5,137.5C 107.702,137.957 107.369,138.624 107.5,139.5C 103.81,138.001 100.144,136.667 96.5,135.5C 98.1941,132.68 100.027,132.347 102,134.5C 104.03,134.046 105.863,133.38 107.5,132.5 Z"/></g>
<g><path style="opacity:1" fill="#8b79af" d="M 168.5,128.5 C 168.5,129.833 169.167,130.5 170.5,130.5C 168,133.832 165,136.666 161.5,139C 160.135,138.857 158.802,138.357 157.5,137.5C 159.36,136.061 161.027,134.395 162.5,132.5C 163.167,132.167 163.833,131.833 164.5,131.5C 165.833,130.5 167.167,129.5 168.5,128.5 Z"/></g>
<g><path style="opacity:1" fill="#cab5ea" d="M 180.5,114.5 C 180.708,116.92 180.374,119.253 179.5,121.5C 180.747,123.323 181.414,125.323 181.5,127.5C 182.873,127.657 184.207,127.49 185.5,127C 184.833,126.667 184.167,126.333 183.5,126C 185.218,125.654 186.885,125.154 188.5,124.5C 189.522,124.855 190.189,125.522 190.5,126.5C 189.997,130.04 188.997,133.373 187.5,136.5C 187.598,138.553 186.931,140.22 185.5,141.5C 181.5,140.833 179.833,142.5 180.5,146.5C 178.708,146.366 177.042,146.699 175.5,147.5C 175.435,145.304 174.768,143.304 173.5,141.5C 169.264,143.797 165.264,144.13 161.5,142.5C 162.729,141.719 164.062,141.219 165.5,141C 167.745,138.269 169.745,135.436 171.5,132.5C 172.833,129.833 174.167,127.167 175.5,124.5C 177.933,121.525 179.6,118.192 180.5,114.5 Z"/></g>
<g><path style="opacity:1" fill="#d1c2e9" d="M 192.5,125.5 C 192.833,125.5 193.167,125.5 193.5,125.5C 193.167,127.5 192.833,129.5 192.5,131.5C 192.34,133.153 191.674,134.486 190.5,135.5C 189.609,136.11 188.609,136.443 187.5,136.5C 188.997,133.373 189.997,130.04 190.5,126.5C 191.167,126.167 191.833,125.833 192.5,125.5 Z"/></g>
<g><path style="opacity:1" fill="#413a56" d="M 56.5,133.5 C 63.9168,135.424 70.9168,137.424 77.5,139.5C 77.5,140.5 77.5,141.5 77.5,142.5C 75.4352,142.483 73.4352,142.15 71.5,141.5C 69.901,141.768 68.5676,141.434 67.5,140.5C 64.9164,138.528 61.9164,137.528 58.5,137.5C 58.1583,136.662 57.4916,136.328 56.5,136.5C 56.1667,135.833 55.8333,135.167 55.5,134.5C 56.1667,134.5 56.5,134.167 56.5,133.5 Z"/></g>
<g><path style="opacity:1" fill="#696777" d="M 58.5,137.5 C 61.9164,137.528 64.9164,138.528 67.5,140.5C 64.2154,140.072 61.2154,139.072 58.5,137.5 Z"/></g>
<g><path style="opacity:1" fill="#291f51" d="M 126.5,138.5 C 132.775,137.567 139.108,137.9 145.5,139.5C 140.706,139.705 135.706,140.372 130.5,141.5C 129.91,142.799 128.91,143.632 127.5,144C 129.134,144.494 130.801,144.66 132.5,144.5C 132.5,145.167 132.167,145.5 131.5,145.5C 129.5,145.5 127.5,145.5 125.5,145.5C 120.485,145.85 115.652,145.183 111,143.5C 110.667,143.833 110.333,144.167 110,144.5C 108.898,143.051 107.731,141.718 106.5,140.5C 108.224,140.539 108.557,140.206 107.5,139.5C 107.369,138.624 107.702,137.957 108.5,137.5C 113.044,137.821 117.71,138.488 122.5,139.5C 123.736,138.754 125.07,138.421 126.5,138.5 Z"/></g>
<g><path style="opacity:0.945" fill="#e2d7ed" d="M 190.5,135.5 C 188.957,140.582 185.957,144.582 181.5,147.5C 180.933,144.089 182.266,142.089 185.5,141.5C 186.931,140.22 187.598,138.553 187.5,136.5C 188.609,136.443 189.609,136.11 190.5,135.5 Z"/></g>
<g><path style="opacity:1" fill="#2f2057" d="M 162.5,132.5 C 161.027,134.395 159.36,136.061 157.5,137.5C 153.188,139.321 148.855,141.154 144.5,143C 140.534,143.828 136.534,144.328 132.5,144.5C 130.801,144.66 129.134,144.494 127.5,144C 128.91,143.632 129.91,142.799 130.5,141.5C 135.706,140.372 140.706,139.705 145.5,139.5C 146.913,138.065 148.58,137.065 150.5,136.5C 151.167,136.5 151.833,136.5 152.5,136.5C 155.978,135.514 159.311,134.18 162.5,132.5 Z"/></g>
<g><path style="opacity:1" fill="#8f7db8" d="M 157.5,137.5 C 156.918,138.931 156.085,140.264 155,141.5C 154.667,141.167 154.333,140.833 154,140.5C 151.602,141.856 149.102,143.023 146.5,144C 140.132,145.107 133.798,146.274 127.5,147.5C 128.833,146.833 130.167,146.167 131.5,145.5C 132.167,145.5 132.5,145.167 132.5,144.5C 136.534,144.328 140.534,143.828 144.5,143C 148.855,141.154 153.188,139.321 157.5,137.5 Z"/></g>
<g><path style="opacity:1" fill="#3a3153" d="M 60.5,131.5 C 61.484,134.07 62.6507,134.07 64,131.5C 66.0955,132.715 65.9288,133.549 63.5,134C 64.7839,134.684 65.9505,134.517 67,133.5C 69.7102,135.679 72.5436,136.679 75.5,136.5C 77.0858,137.148 78.7525,137.648 80.5,138C 81.3366,139.011 81.67,140.178 81.5,141.5C 90.0963,143.726 98.763,145.393 107.5,146.5C 103.833,146.5 100.167,146.5 96.5,146.5C 93.0264,145.475 89.3597,144.808 85.5,144.5C 85.1667,144.5 84.8333,144.5 84.5,144.5C 82.5615,142.837 80.2282,142.171 77.5,142.5C 77.5,141.5 77.5,140.5 77.5,139.5C 70.9168,137.424 63.9168,135.424 56.5,133.5C 56.5,133.167 56.5,132.833 56.5,132.5C 57.7079,131.766 59.0413,131.433 60.5,131.5 Z"/></g>
<g><path style="opacity:1" fill="#8f899c" d="M 71.5,141.5 C 73.4352,142.15 75.4352,142.483 77.5,142.5C 77.5,142.833 77.5,143.167 77.5,143.5C 74.9899,143.946 72.9899,143.28 71.5,141.5 Z"/></g>
<g><path style="opacity:1" fill="#b09dd4" d="M 175.5,124.5 C 174.167,127.167 172.833,129.833 171.5,132.5C 167.382,135.951 163.715,139.618 160.5,143.5C 156.511,143.116 152.845,143.783 149.5,145.5C 140.362,148.058 131.029,149.058 121.5,148.5C 121.5,148.167 121.5,147.833 121.5,147.5C 123.5,147.5 125.5,147.5 127.5,147.5C 133.798,146.274 140.132,145.107 146.5,144C 149.102,143.023 151.602,141.856 154,140.5C 154.333,140.833 154.667,141.167 155,141.5C 156.085,140.264 156.918,138.931 157.5,137.5C 158.802,138.357 160.135,138.857 161.5,139C 165,136.666 168,133.832 170.5,130.5C 171.72,128.019 173.386,126.019 175.5,124.5 Z"/></g>
<g><path style="opacity:1" fill="#e9e2ec" d="M 29.5,121.5 C 33.1938,124.527 36.5271,127.86 39.5,131.5C 45.9847,136.742 53.318,140.409 61.5,142.5C 62.347,143.966 63.6803,144.8 65.5,145C 64.5061,146.329 63.5061,147.662 62.5,149C 62.7531,154.46 62.7531,159.96 62.5,165.5C 56.2722,162.584 49.9389,159.751 43.5,157C 39.4204,154.971 35.7537,152.471 32.5,149.5C 33.6448,148.207 33.3115,147.041 31.5,146C 35.9177,145.792 40.251,145.126 44.5,144C 41.8332,141.419 38.8332,140.586 35.5,141.5C 35.0704,137.122 34.5704,132.456 34,127.5C 31.8733,125.886 30.3733,123.886 29.5,121.5 Z"/></g>
<g><path style="opacity:1" fill="#565168" d="M 77.5,143.5 C 77.5,143.167 77.5,142.833 77.5,142.5C 80.2282,142.171 82.5615,142.837 84.5,144.5C 82.4352,144.483 80.4352,144.15 78.5,143.5C 78.1667,143.5 77.8333,143.5 77.5,143.5 Z"/></g>
<g><path style="opacity:1" fill="#77708a" d="M 85.5,144.5 C 89.3597,144.808 93.0264,145.475 96.5,146.5C 92.5115,146.884 88.8448,146.217 85.5,144.5 Z"/></g>
<g><path style="opacity:1" fill="#c3b1e0" d="M 185.5,141.5 C 182.266,142.089 180.933,144.089 181.5,147.5C 174.701,152.405 167.701,157.071 160.5,161.5C 158.5,161.833 156.5,162.167 154.5,162.5C 149.863,162.41 145.53,163.41 141.5,165.5C 132.644,165.257 131.81,163.257 139,159.5C 140.688,161.848 142.522,162.015 144.5,160C 141.823,159.751 139.49,158.751 137.5,157C 138.634,155.984 138.301,155.317 136.5,155C 137.448,154.517 138.448,154.351 139.5,154.5C 139.703,152.61 139.037,151.11 137.5,150C 131.843,149.501 126.176,149.334 120.5,149.5C 120.5,148.833 120.833,148.5 121.5,148.5C 131.029,149.058 140.362,148.058 149.5,145.5C 152.518,145.335 155.518,145.502 158.5,146C 160.35,147.845 160.683,149.845 159.5,152C 157.059,152.036 155.059,152.869 153.5,154.5C 154.95,155.85 155.617,157.516 155.5,159.5C 164.298,157.823 170.965,153.823 175.5,147.5C 177.042,146.699 178.708,146.366 180.5,146.5C 179.833,142.5 181.5,140.833 185.5,141.5 Z"/></g>
<g><path style="opacity:1" fill="#736593" d="M 125.5,145.5 C 127.5,145.5 129.5,145.5 131.5,145.5C 130.167,146.167 128.833,146.833 127.5,147.5C 125.5,147.5 123.5,147.5 121.5,147.5C 114.833,147.5 108.167,147.5 101.5,147.5C 99.5853,147.784 97.9187,147.451 96.5,146.5C 100.167,146.5 103.833,146.5 107.5,146.5C 113.69,146.823 119.69,146.49 125.5,145.5 Z"/></g>
<g><path style="opacity:1" fill="#e0d8e7" d="M 61.5,142.5 C 65.7559,144.069 70.0892,145.402 74.5,146.5C 74.6107,147.117 74.944,147.617 75.5,148C 77.8333,148.333 80.1667,148.667 82.5,149C 80.3367,149.245 78.67,150.245 77.5,152C 78.4061,153.699 78.7394,155.533 78.5,157.5C 80.9418,157.119 81.6085,157.786 80.5,159.5C 77.3416,160.25 74.6749,161.583 72.5,163.5C 70.1667,163.5 67.8333,163.5 65.5,163.5C 63.6921,164.918 63.0254,166.918 63.5,169.5C 62.8333,169.5 62.1667,169.5 61.5,169.5C 62.2341,168.292 62.5674,166.959 62.5,165.5C 62.7531,159.96 62.7531,154.46 62.5,149C 63.5061,147.662 64.5061,146.329 65.5,145C 63.6803,144.8 62.347,143.966 61.5,142.5 Z"/></g>
<g><path style="opacity:1" fill="#b9b1c7" d="M 78.5,143.5 C 80.4352,144.15 82.4352,144.483 84.5,144.5C 84.8333,144.5 85.1667,144.5 85.5,144.5C 88.8448,146.217 92.5115,146.884 96.5,146.5C 97.9187,147.451 99.5853,147.784 101.5,147.5C 102.833,148.167 104.167,148.833 105.5,149.5C 103.5,149.5 101.5,149.5 99.5,149.5C 94.1363,148.964 88.803,148.297 83.5,147.5C 81.9934,146.025 80.3268,144.691 78.5,143.5 Z"/></g>
<g><path style="opacity:1" fill="#b0a2c8" d="M 101.5,147.5 C 108.167,147.5 114.833,147.5 121.5,147.5C 121.5,147.833 121.5,148.167 121.5,148.5C 120.833,148.5 120.5,148.833 120.5,149.5C 119.5,149.5 118.5,149.5 117.5,149.5C 116.167,149.5 114.833,149.5 113.5,149.5C 110.833,149.5 108.167,149.5 105.5,149.5C 104.167,148.833 102.833,148.167 101.5,147.5 Z"/></g>
<g><path style="opacity:1" fill="#c0ade2" d="M 171.5,132.5 C 169.745,135.436 167.745,138.269 165.5,141C 164.062,141.219 162.729,141.719 161.5,142.5C 165.264,144.13 169.264,143.797 173.5,141.5C 174.768,143.304 175.435,145.304 175.5,147.5C 170.965,153.823 164.298,157.823 155.5,159.5C 155.617,157.516 154.95,155.85 153.5,154.5C 155.059,152.869 157.059,152.036 159.5,152C 160.683,149.845 160.35,147.845 158.5,146C 155.518,145.502 152.518,145.335 149.5,145.5C 152.845,143.783 156.511,143.116 160.5,143.5C 163.715,139.618 167.382,135.951 171.5,132.5 Z"/></g>
<g><path style="opacity:1" fill="#d1c6dd" d="M 99.5,149.5 C 101.5,149.5 103.5,149.5 105.5,149.5C 106.6,150.558 107.934,151.392 109.5,152C 108.167,152.333 106.833,152.667 105.5,153C 107.405,153.826 107.739,154.993 106.5,156.5C 101.087,153.744 100.421,154.578 104.5,159C 103.66,160.666 104.16,160.833 106,159.5C 107.039,160.244 107.539,161.244 107.5,162.5C 102.36,163.488 97.0262,163.821 91.5,163.5C 91.5,164.5 91.5,165.5 91.5,166.5C 86.5,166.5 81.5,166.5 76.5,166.5C 72.6644,165.813 68.9977,164.813 65.5,163.5C 67.8333,163.5 70.1667,163.5 72.5,163.5C 73.9085,164.061 75.4085,164.395 77,164.5C 80.5145,162.588 84.1812,160.922 88,159.5C 88.3333,159.833 88.6667,160.167 89,160.5C 90.5,159.333 92,158.167 93.5,157C 92.7203,155.927 92.887,154.76 94,153.5C 95.4901,157.327 97.3235,157.494 99.5,154C 99.0946,153.055 98.428,152.388 97.5,152C 98.756,151.583 99.4226,150.75 99.5,149.5 Z"/></g>
<g><path style="opacity:1" fill="#c3b3dc" d="M 117.5,149.5 C 118.5,149.5 119.5,149.5 120.5,149.5C 126.176,149.334 131.843,149.501 137.5,150C 139.037,151.11 139.703,152.61 139.5,154.5C 138.448,154.351 137.448,154.517 136.5,155C 138.301,155.317 138.634,155.984 137.5,157C 139.49,158.751 141.823,159.751 144.5,160C 142.522,162.015 140.688,161.848 139,159.5C 131.81,163.257 132.644,165.257 141.5,165.5C 145.53,163.41 149.863,162.41 154.5,162.5C 148.991,164.746 143.324,166.746 137.5,168.5C 136.833,168.5 136.5,168.833 136.5,169.5C 135.833,169.5 135.167,169.5 134.5,169.5C 122.833,168.833 111.167,168.167 99.5,167.5C 107.238,167.856 114.905,167.356 122.5,166C 120.833,165.667 119.167,165.333 117.5,165C 119.848,164.654 121.681,163.487 123,161.5C 124.049,162.517 125.216,162.684 126.5,162C 125.687,160.686 124.687,159.519 123.5,158.5C 124.833,157.5 124.833,156.5 123.5,155.5C 126.144,154.604 128.81,153.771 131.5,153C 126.939,151.121 122.272,149.954 117.5,149.5 Z"/></g>
<g><path style="opacity:1" fill="#cfc2e1" d="M 105.5,149.5 C 108.167,149.5 110.833,149.5 113.5,149.5C 113.082,150.222 112.416,150.722 111.5,151C 112.833,152 114.167,153 115.5,154C 113.009,154.626 113.009,155.459 115.5,156.5C 113.664,159.677 110.998,161.677 107.5,162.5C 107.539,161.244 107.039,160.244 106,159.5C 104.16,160.833 103.66,160.666 104.5,159C 100.421,154.578 101.087,153.744 106.5,156.5C 107.739,154.993 107.405,153.826 105.5,153C 106.833,152.667 108.167,152.333 109.5,152C 107.934,151.392 106.6,150.558 105.5,149.5 Z"/></g>
<g><path style="opacity:1" fill="#cabce0" d="M 113.5,149.5 C 114.833,149.5 116.167,149.5 117.5,149.5C 122.272,149.954 126.939,151.121 131.5,153C 128.81,153.771 126.144,154.604 123.5,155.5C 124.833,156.5 124.833,157.5 123.5,158.5C 124.687,159.519 125.687,160.686 126.5,162C 125.216,162.684 124.049,162.517 123,161.5C 121.681,163.487 119.848,164.654 117.5,165C 119.167,165.333 120.833,165.667 122.5,166C 114.905,167.356 107.238,167.856 99.5,167.5C 96.8333,167.5 94.1667,167.5 91.5,167.5C 91.5,167.167 91.5,166.833 91.5,166.5C 91.5,165.5 91.5,164.5 91.5,163.5C 97.0262,163.821 102.36,163.488 107.5,162.5C 110.998,161.677 113.664,159.677 115.5,156.5C 113.009,155.459 113.009,154.626 115.5,154C 114.167,153 112.833,152 111.5,151C 112.416,150.722 113.082,150.222 113.5,149.5 Z"/></g>
<g><path style="opacity:0.529" fill="#e9e0f3" d="M 181.5,147.5 C 176.09,154.384 169.09,159.051 160.5,161.5C 167.701,157.071 174.701,152.405 181.5,147.5 Z"/></g>
<g><path style="opacity:1" fill="#d7cee0" d="M 74.5,146.5 C 77.5701,146.368 80.5701,146.701 83.5,147.5C 88.803,148.297 94.1363,148.964 99.5,149.5C 99.4226,150.75 98.756,151.583 97.5,152C 98.428,152.388 99.0946,153.055 99.5,154C 97.3235,157.494 95.4901,157.327 94,153.5C 92.887,154.76 92.7203,155.927 93.5,157C 92,158.167 90.5,159.333 89,160.5C 88.6667,160.167 88.3333,159.833 88,159.5C 84.1812,160.922 80.5145,162.588 77,164.5C 75.4085,164.395 73.9085,164.061 72.5,163.5C 74.6749,161.583 77.3416,160.25 80.5,159.5C 81.6085,157.786 80.9418,157.119 78.5,157.5C 78.7394,155.533 78.4061,153.699 77.5,152C 78.67,150.245 80.3367,149.245 82.5,149C 80.1667,148.667 77.8333,148.333 75.5,148C 74.944,147.617 74.6107,147.117 74.5,146.5 Z"/></g>
<g><path style="opacity:1" fill="#777185" d="M 65.5,163.5 C 68.9977,164.813 72.6644,165.813 76.5,166.5C 76.5,167.5 76.5,168.5 76.5,169.5C 72.1667,169.5 67.8333,169.5 63.5,169.5C 63.0254,166.918 63.6921,164.918 65.5,163.5 Z"/></g>
<g><path style="opacity:0.102" fill="#ece3f4" d="M 160.5,161.5 C 153.346,165.216 145.68,167.549 137.5,168.5C 143.324,166.746 148.991,164.746 154.5,162.5C 156.5,162.167 158.5,161.833 160.5,161.5 Z"/></g>
<g><path style="opacity:1" fill="#87808f" d="M 76.5,166.5 C 81.5,166.5 86.5,166.5 91.5,166.5C 91.5,166.833 91.5,167.167 91.5,167.5C 88.3019,166.964 85.6353,167.631 83.5,169.5C 81.1667,169.5 78.8333,169.5 76.5,169.5C 76.5,168.5 76.5,167.5 76.5,166.5 Z"/></g>
<g><path style="opacity:1" fill="#584e69" d="M 91.5,167.5 C 94.1667,167.5 96.8333,167.5 99.5,167.5C 111.167,168.167 122.833,168.833 134.5,169.5C 117.5,169.5 100.5,169.5 83.5,169.5C 85.6353,167.631 88.3019,166.964 91.5,167.5 Z"/></g>
</svg>
